<svg id="Layer_1" data-name="Layer 1" xmlns="http://www.w3.org/2000/svg" viewBox="0 0 678.34 111.88"><defs><style>.cls-1{fill:none;stroke:#231f20;stroke-miterlimit:10;stroke-width:3px;}.cls-2{fill:#231f20;}</style></defs><title>logo</title><line class="cls-1" x1="161.49" y1="110.05" x2="185.35" y2="110.05"/><path class="cls-2" d="M153.87,611.91a1.31,1.31,0,0,1-1.28-1.29l-17.29-84.83q-0.26-1.28.87-1.29h1.49a1.29,1.29,0,0,1,1.24,1.29l15.62,75.71h0.26l15.49-75.71a1.28,1.28,0,0,1,1.24-1.29H173q1.13,0,.87,1.29l-17.29,84.83a1.31,1.31,0,0,1-1.28,1.29h-1.41Z" transform="translate(19.77 -513.27)"/><path class="cls-2" d="M291.85,588.36a55.62,55.62,0,0,1-1,11.65,20,20,0,0,1-3.15,7.59,11.7,11.7,0,0,1-5.27,4.12,20.8,20.8,0,0,1-7.52,1.22q-8.48,0-12.66-5.33t-4.82-16.39a1.28,1.28,0,0,1,.9-1.41l1-.26a1,1,0,0,1,1.41,1q0.77,10.74,4.24,14.88t9.9,4.14a16.85,16.85,0,0,0,5.72-.9,8.71,8.71,0,0,0,4.18-3.22,16.66,16.66,0,0,0,2.51-6.37,52.86,52.86,0,0,0,.83-10.36q0-8.88-2.38-13.07a14.45,14.45,0,0,0-7.65-6.24l-5.27-2.06a34.23,34.23,0,0,1-7-3.61,15.19,15.19,0,0,1-4.37-4.57A17.89,17.89,0,0,1,259.2,553a47.76,47.76,0,0,1-.64-8.43q0-10.94,4-16t12.15-5.08q7.84,0,12,4.76t4.37,14.91a1.28,1.28,0,0,1-.9,1.41l-1,.26a1,1,0,0,1-1.41-1q-0.39-8.93-3.42-12.94t-9.62-4q-6.59,0-9.56,4.12t-3,13.39q0,8.37,2.32,12.42t7.88,6.12l5.29,2.06a30.52,30.52,0,0,1,6.71,3.48,16.06,16.06,0,0,1,4.39,4.63,18.75,18.75,0,0,1,2.39,6.44A48.1,48.1,0,0,1,291.85,588.36Z" transform="translate(19.77 -513.27)"/><path class="cls-2" d="M331.06,601.63a19.46,19.46,0,0,1-.84-3.15,44.5,44.5,0,0,1-.52-5.21q-0.19-3.47-.26-9.32t-0.06-15.75q0-9.77.06-15.68t0.26-9.38a44.64,44.64,0,0,1,.51-5.21,19.53,19.53,0,0,1,.84-3.15q3.6-11.31,15.94-11.31,7.07,0,11.31,4.43t5.27,12q0.13,1.42-.77,1.67l-1,.26a1.06,1.06,0,0,1-1.54-.91q-1-6.61-4.26-10.37t-9-3.76q-9.43,0-12.4,9.15a23.3,23.3,0,0,0-.71,2.77,38.79,38.79,0,0,0-.52,5q-0.19,3.35-.26,9.09T333,568.21q0,9.67.06,15.41t0.26,9.09a38.81,38.81,0,0,0,.52,5,23.16,23.16,0,0,0,.71,2.77q3,9.16,12.4,9.15,5.81,0,9-3.76t4.26-10.37a1.1,1.1,0,0,1,1.6-.91l1.07,0.26a1.44,1.44,0,0,1,.81,1.67q-1,7.59-5.29,12t-11.35,4.43Q334.67,612.94,331.06,601.63Z" transform="translate(19.77 -513.27)"/><path class="cls-2" d="M400.85,525.79a1.12,1.12,0,0,1,1.24-1.29h1.12a1.12,1.12,0,0,1,1.24,1.29v38.68a0.68,0.68,0,0,0,.77.77h26.61a0.68,0.68,0,0,0,.77-0.77V525.8a1.12,1.12,0,0,1,1.24-1.29H435a1.12,1.12,0,0,1,1.24,1.29v84.83a1.12,1.12,0,0,1-1.24,1.29h-1.12a1.12,1.12,0,0,1-1.24-1.29V569.37a0.68,0.68,0,0,0-.77-0.77H405.22a0.68,0.68,0,0,0-.77.77v41.26a1.12,1.12,0,0,1-1.24,1.29h-1.12a1.12,1.12,0,0,1-1.24-1.29V525.79Z" transform="translate(19.77 -513.27)"/><path class="cls-2" d="M494.87,612.94a18.25,18.25,0,0,1-10.31-2.76,15.19,15.19,0,0,1-6-8.55,19.67,19.67,0,0,1-.83-3.15,44.9,44.9,0,0,1-.51-5.21q-0.19-3.47-.25-9.32t-0.06-15.75q0-9.77.06-15.68t0.25-9.38a45,45,0,0,1,.51-5.21,19.74,19.74,0,0,1,.83-3.15,15.19,15.19,0,0,1,6-8.55,20.61,20.61,0,0,1,20.62,0,15.21,15.21,0,0,1,6,8.55,19.86,19.86,0,0,1,.83,3.15,45,45,0,0,1,.51,5.21q0.19,3.47.26,9.38t0.06,15.68q0,9.9-.06,15.75t-0.26,9.32a44.9,44.9,0,0,1-.51,5.21,19.78,19.78,0,0,1-.83,3.15,15.21,15.21,0,0,1-6,8.55A18.25,18.25,0,0,1,494.87,612.94Zm0-3.34q9.81,0,12.78-9.15a17.81,17.81,0,0,0,.65-2.77q0.26-1.61.45-5t0.32-9.09q0.13-5.74.13-15.41t-0.13-15.41q-0.13-5.74-.32-9.09t-0.45-5a17.9,17.9,0,0,0-.65-2.77q-3-9.15-12.78-9.15T482.09,536a23.71,23.71,0,0,0-.71,2.77,38.79,38.79,0,0,0-.52,5q-0.19,3.35-.26,9.09t-0.06,15.41q0,9.67.06,15.41t0.26,9.09a38.81,38.81,0,0,0,.52,5,23.57,23.57,0,0,0,.71,2.77Q485.06,609.6,494.87,609.6Z" transform="translate(19.77 -513.27)"/><path class="cls-2" d="M570.19,612.94a18.25,18.25,0,0,1-10.31-2.76,15.19,15.19,0,0,1-6-8.55,19.67,19.67,0,0,1-.83-3.15,44.9,44.9,0,0,1-.51-5.21q-0.19-3.47-.25-9.32t-0.06-15.75q0-9.77.06-15.68t0.25-9.38a45,45,0,0,1,.51-5.21,19.74,19.74,0,0,1,.83-3.15,15.19,15.19,0,0,1,6-8.55,20.61,20.61,0,0,1,20.62,0,15.21,15.21,0,0,1,6,8.55,19.86,19.86,0,0,1,.83,3.15,45,45,0,0,1,.51,5.21q0.19,3.47.26,9.38t0.06,15.68q0,9.9-.06,15.75t-0.26,9.32a44.9,44.9,0,0,1-.51,5.21,19.78,19.78,0,0,1-.83,3.15,15.21,15.21,0,0,1-6,8.55A18.25,18.25,0,0,1,570.19,612.94Zm0-3.34q9.81,0,12.78-9.15a17.81,17.81,0,0,0,.65-2.77q0.26-1.61.45-5t0.32-9.09q0.13-5.74.13-15.41T584.4,552.8q-0.13-5.74-.32-9.09t-0.45-5A17.9,17.9,0,0,0,583,536q-3-9.15-12.78-9.15T557.41,536a23.71,23.71,0,0,0-.71,2.77,38.79,38.79,0,0,0-.52,5q-0.19,3.35-.26,9.09t-0.06,15.41q0,9.67.06,15.41t0.26,9.09a38.81,38.81,0,0,0,.52,5,23.57,23.57,0,0,0,.71,2.77Q560.38,609.6,570.19,609.6Z" transform="translate(19.77 -513.27)"/><path class="cls-2" d="M628.87,525.79a1.12,1.12,0,0,1,1.24-1.29h1.12a1.12,1.12,0,0,1,1.24,1.29v82a0.68,0.68,0,0,0,.77.77h24a1.12,1.12,0,0,1,1.29,1.24v0.87a1.12,1.12,0,0,1-1.29,1.24H630.11a1.12,1.12,0,0,1-1.24-1.29V525.79Z" transform="translate(19.77 -513.27)"/><path class="cls-2" d="M20.77,625.15l-40.51-51.73,0-1.18,40.51-58.92,1.62,0L62,565.34l0,1.17L22.39,625.09Zm-38.48-52.38L21.5,622.83,60,566,21.6,515.58Z" transform="translate(19.77 -513.27)"/><polygon class="cls-2" points="42.31 111.49 40.35 111.42 33.65 69.28 35.74 69.67 41.52 106.06 50.17 69.08 41.04 5.56 31.31 41.77 34.65 62.29 32.56 61.88 29.3 41.87 29.32 41.45 40.37 0.35 42.33 0.46 52.17 68.98 52.16 69.35 42.31 111.49"/><polygon class="cls-2" points="51 70.1 0.64 60.51 0.31 58.67 29.77 40.86 30.5 40.74 43.99 43.64 44.29 45.75 30.46 42.78 3.57 59.03 51.02 68.07 78.17 53.09 51.62 47.36 51.31 45.25 81.2 51.7 81.47 53.55 51.67 70 51 70.1"/></svg>