<?xml version="1.0" encoding="utf-8"?>
<!-- Generator: Adobe Illustrator 22.0.1, SVG Export Plug-In . SVG Version: 6.00 Build 0)  -->
<svg version="1.1" id="Layer_1" xmlns="http://www.w3.org/2000/svg" xmlns:xlink="http://www.w3.org/1999/xlink" x="0px" y="0px"
	 viewBox="0 0 23.9 23.9" style="enable-background:new 0 0 23.9 23.9;" xml:space="preserve">
<style type="text/css">
	.st0{fill:#161616;}
</style>
<g>
	<g>
		<path class="st0" d="M23,3.7l-1.4,1.4l-3-3L20,0.7c0.3-0.3,0.8-0.3,1.1,0L23,2.5C23.3,2.8,23.3,3.3,23,3.7z"/>
		<polygon class="st0" points="17.6,3.1 7.6,13 6.1,17.5 10.6,16 20.6,6.1 		"/>
	</g>
	<polygon class="st0" points="19.7,9.1 19.7,20.5 3.7,20.5 3.7,4.5 14,4.5 17,1.5 3.7,1.5 0.7,1.5 0.7,4.5 0.7,20.5 0.7,23.5 
		3.7,23.5 19.7,23.5 22.7,23.5 22.7,20.5 22.7,6.1 	"/>
</g>
</svg>
