<?xml version="1.0" encoding="utf-8"?>
<!-- Generator: Adobe Illustrator 22.0.0, SVG Export Plug-In . SVG Version: 6.00 Build 0)  -->
<svg version="1.1" id="Layer_1" xmlns="http://www.w3.org/2000/svg" xmlns:xlink="http://www.w3.org/1999/xlink" x="0px" y="0px"
	 viewBox="0 0 85 85" style="enable-background:new 0 0 85 85;" xml:space="preserve">
<style type="text/css">
	.st0{clip-path:url(#SVGID_2_);}
	.st1{fill:#8583A7;}
	.st2{fill:#B27600;}
	.st3{fill:url(#SVGID_3_);}
	.st4{fill:#2D190E;}
	.st5{fill:#FFFFFF;stroke:#000000;stroke-miterlimit:10;}
	.st6{fill:#EE8135;}
	.st7{fill:#777399;}
	.st8{fill:#0A58D6;}
	.st9{fill:#FAC38A;}
	.st10{fill:#F4B68C;}
	.st11{fill:#352D31;}
	.st12{fill:#FFD698;}
	.st13{fill:#FFBA86;}
	.st14{fill:#FEA175;}
	.st15{fill:#FFFFFF;}
	.st16{fill:#FFB984;}
	.st17{fill:#9F5D20;}
	.st18{fill:#B0CDE9;}
	.st19{fill:#652E10;}
	.st20{opacity:0.39;fill:#512308;}
	.st21{fill:#FDBA87;}
	.st22{fill:#153A17;}
	.st23{fill:#286829;}
	.st24{fill:#1A1A1A;}
	.st25{fill:#F7F7F7;}
	.st26{opacity:0.98;fill:#FF3406;}
	.st27{fill:#F29875;}
	.st28{fill:#780128;}
	.st29{fill:#F2F2F2;}
	.st30{fill:#64B9F9;}
	.st31{fill:#441600;}
	.st32{opacity:0.1;}
	.st33{fill:#9A0501;}
	.st34{fill:#385C83;}
	.st35{fill:#EDA431;}
	.st36{fill:#D24451;}
	.st37{fill:#1C1716;}
	.st38{fill:#FFF13A;}
	.st39{fill:#F6C120;}
	.st40{fill:#F41B15;}
	.st41{fill:#FF3406;}
	.st42{fill:#FC4B36;}
	.st43{fill:#966F54;}
	.st44{fill:#FFCAA6;}
	.st45{fill:#E2A67D;}
	.st46{opacity:0.46;fill:#CE9976;}
	.st47{fill:#FCC29A;}
	.st48{fill:#231E21;}
	.st49{fill:#493F46;}
	.st50{fill:#0C0A0B;}
	.st51{fill:#E89270;}
	.st52{fill:#562611;}
	.st53{fill:#CECECE;}
	.st54{fill:#C4C4C4;}
	.st55{fill:#207AE0;}
	.st56{fill:#1C1C1C;}
	.st57{fill:#FFBF8B;}
	.st58{opacity:0.49;fill:#E8B485;}
	.st59{fill:#4C230F;}
	.st60{fill:#161415;}
	.st61{fill:#232123;}
	.st62{fill:#141414;}
	.st63{fill:#B21900;}
	.st64{fill:#443327;}
	.st65{fill:#E8250C;}
	.st66{fill:#FCA621;}
	.st67{opacity:0.44;fill:#FFF13A;}
	.st68{fill:#FFB850;}
	.st69{opacity:0.1;fill:#9A0501;}
	.st70{opacity:0.38;fill:#4A9CED;}
	.st71{opacity:0.2;fill:#CE9976;}
	.st72{opacity:0.32;fill:#E0A379;}
	.st73{opacity:0.48;fill:#E0A379;}
	.st74{fill:#DB1414;}
	.st75{opacity:0.54;fill:#E89270;}
	.st76{fill:#BB2F18;}
	.st77{fill:#51240E;}
	.st78{fill:#C67D63;}
	.st79{fill:#E5E5E5;}
	.st80{fill:#273F51;}
	.st81{fill:#0D230E;}
	.st82{fill:#A57859;}
	.st83{fill:#3F1A0D;}
	.st84{opacity:0.25;fill:#51240E;}
	.st85{opacity:0.2;fill:#51240E;}
	.st86{fill:#595458;}
	.st87{fill:#FBB03B;}
	.st88{fill:#351E0C;}
</style>
<g>
	<defs>
		<rect id="SVGID_1_" width="85" height="85"/>
	</defs>
	<clipPath id="SVGID_2_">
		<use xlink:href="#SVGID_1_"  style="overflow:visible;"/>
	</clipPath>
	<g class="st0">
		<rect x="-15.4" y="-1.7" class="st1" width="125.4" height="87.9"/>
		<path class="st2" d="M72.9,44.3c0,0,1.8,2.7,2.1,4.2c0,0,1.6-0.2,2,0.2l0.6-0.8L73,44.3L72.9,44.3"/>
		<linearGradient id="SVGID_3_" gradientUnits="userSpaceOnUse" x1="33.2087" y1="51.255" x2="33.2087" y2="51.255">
			<stop  offset="0" style="stop-color:#666666"/>
			<stop  offset="1" style="stop-color:#000000"/>
		</linearGradient>
		<path class="st3" d="M33.2,51.3"/>
		<path class="st4" d="M26.7,74c0,0,3.5,0.3,3.8-0.3c0,0,0,2.2-0.4,2.5c-0.4,0.4-7,0.9-7,0.9L26.7,74"/>
		<polyline class="st5" points="58.8,48.3 58.6,49.2 57.4,49.1 57.4,48.4 58.8,48.3 		"/>
		<path class="st6" d="M45.2,10.5c0,0-1.7,12.1-4.2,15.3c-0.7,1.8,1.3-0.9,1.3-0.9S45.9,17.7,45.2,10.5"/>
		<path class="st7" d="M25.6,50.3c0,0,0.5,1.5,0.7,1.7c0.2,0.2,0.8-0.7,0.8-0.7L25.6,50.3"/>
		<path class="st8" d="M60.4,83.3L51.2,77l1.6-1.1c0,0,4.4,2.4,7.9,0.6c-0.6,0.2,9.9,7.7,9,10.4l-3.7-0.1
			C65.9,86.7,61.4,83.2,60.4,83.3z"/>
		<path class="st9" d="M31.6,64.7c-1.5-1.3,2.3,11.6,12.3,13.3c0,0-5-0.4-7.2-11.5C36.7,66.4,33.1,65.9,31.6,64.7z"/>
		<path class="st10" d="M76.8,85.1l-2.7-1.4l-3-0.9l-1.5-1.1l-0.4-1.4l-0.1-2.6l0.2-1.4l1.7-2.5l4.3-5.6l3.2-3.4l2.5-2l1.7-0.8
			l1.6-0.4l1.4,0.5l1,1.2l0.9,2.5l0.7,3.4l0.3,2.8c0.1,0,0.4,3-0.5,4.2c-0.8,1.1-3.7,5-4.7,5.8S78.5,85.1,76.8,85.1z"/>
		<path class="st11" d="M43.3,55.7c0,0,2.6,6.1-3.4,9.9c-0.1,0-4.9,3.2-10.5-2.9c0-0.1-4-5.7,3.7-9.4C33.5,53.1,38.8,49,43.3,55.7z"
			/>
		<path class="st12" d="M39.9,65.5c0,0,6,11.2,8.3,11.8c0.2,0.3,5.4-1.6,7.9-4.5c0,0.1-4-15.5-6.4-15.9c-2.4-0.3-6.1-0.7-6.1-0.7
			S46.1,61.8,39.9,65.5z"/>
		<path class="st13" d="M39.9,65.5c0,0,6.8,12.1,8.3,11.8c0,0-9.3,4.9-11.5-10.9C36.7,66.4,39.9,65.5,39.9,65.5z"/>
		<path class="st14" d="M54.7,51.4l3.8-1.8c0,0,8.2-6,11.5,2.6c0,0,3.3,7-4.1,20.6c0,0-3.8,4.2-7.9,4.3c0,0-4.5-0.4-5.3-1.3v-0.3
			l1.7-1.1c0,0,3.1,3.3,5.2,0.3c0.1-0.1,6-5.8,2.6-14c0.1-0.2-1.7-1.6-1.7-1.6S59.3,53.3,54.7,51.4z"/>
		<ellipse class="st15" cx="42.8" cy="49.6" rx="0.8" ry="0.9"/>
		<path class="st15" d="M38.8,52c0,0-2.1-8.1,3.4-5.9c0,0,1.2,0.5,1.2,0.5s-3.5,1-1.3,5.6c0,0.1,1.5,2.7,4.5,1.4
			c0.1-0.1,0.6,0.2,0.6,0.2l-3.5,2.3C43.5,56.2,41.5,52.7,38.8,52z"/>
		<path class="st16" d="M33.5,70.3"/>
		<path class="st17" d="M76.4,85.1l-0.8,0.6c0,0,4.6,1.9,8.5-4.2C83.9,81.7,78.7,85.7,76.4,85.1z"/>
		<path class="st18" d="M79.8,86.7c0,0,4.5-4,5.2-4.4c0.7-0.4,3.6-3.3,3.6-3.3l0.6,0.8c0,0-1.4,1.7-2.3,2.4c0,0.1-5.4,4.5-5.4,4.5"
			/>
		<path class="st19" d="M52.6,75.9c0,0-6.5,2.7-8.8,2.1c0,0-7.1-2.3-9.8-6.6c-0.2-0.3-0.4-0.7-0.6-1c0,0-8.4,3.2-11.2,4.5
			c0,0.4,1.6,8,2.3,10.4c0.1,0.3,1.9,1.6,1.9,1.6s11.9,0.2,12.9,0.1c1-0.1,2-1.7,2-1.7s2.4,1.8,3.1,1.7c0.7-0.1,2.9-0.1,2.9-0.1
			s6.3-1.2,7.3-2.2c-0.1,0,6.3-1.1,6.3-1.1s-6.4-3.9-9.7-6.4"/>
		<path class="st20" d="M33.5,86.4c0,0-12.5-9.9,0.6-14.6c0.3-0.1-0.6-1.5-0.6-1.5l-11.2,4.5l2.3,10.4l1.9,1.6L33.5,86.4z"/>
		<path class="st21" d="M80.6,24.5c0,0-2.2-2.7-7.8-2.7c-0.4-0.1,0,0.5-2.9-1.7c0.1,0.1-4-0.8-3.3-3.8c0.1-0.1,0.2-3.7,4.2-3.4
			c0.2-0.2,0.2-3.1,0.2-3.1c0.4,0-0.5-6.5,5.4-4.6c-0.1,0.1,1.5,0,1.5,0c0.6-1.9,6-1.6,7.2-0.3c0,0.3,3.4-0.4,5.2,0.5
			c0.2,0.4,2.8,0.3,3.6,2.9c0.2,0.6,0.6,3.5,0.8,5c0.1,0.7,0.2,1.5,0.1,2.2c0,0.3-1.6,4.9-1,6.6C94,22.7,84.1,27.6,80.6,24.5z"/>
		<path class="st21" d="M24.6,85.1l-0.4,1.1H1.6c0.2-0.8,0.9-1.4,1-1.5c0.2-0.3-0.6-4.3,2.7-5.2c0,0-0.1-3.3,3.1-4.8
			c0.1,0.3,3.8-0.3,4.6,0c0.1,0,7.2-0.8,9.3-0.1L24.6,85.1z"/>
		<path class="st15" d="M13.5,28.5c0,0,1.1-3.8,4.1-3.5c0,0,2.3-0.1,2.6,2.3c0.2,0.9,0,3-1.1,3.3l-6.8,2.8c0,0-1.2-1.4-1.2-4.4
			C11,29,11.8,26.5,13.5,28.5z"/>
		<path class="st22" d="M11.9,30.7c0,0,0.8-0.7,3.1,1.6c0,0-2.8,1.1-2.8,1.1S11,31.2,11.9,30.7z"/>
		<path class="st22" d="M18.6,30.8c0,0-2.2-2.5-3.3-2.2c-0.1,0-1.4,0.5-0.8,1.9c0.1,0.3,1.4,1.9,1.2,1.5l0.6-0.2L18.6,30.8z"/>
		<path class="st23" d="M15.2,31.6c0,0,0.4-1.8,2.8-1.4c0,0,0.5,0.6,0.5,0.6L15.7,32L15.2,31.6z"/>
		<path class="st24" d="M15.7,30c0,0-0.7,1.2,0.6,1.8l1.2-0.5C17.5,31.2,17,29.7,15.7,30z"/>
		<path class="st25" d="M46.5,50.1c0,0-2.7-4.1-5.1-4.1c0,0-2.4-1-2.9,1.7c0-0.1-0.3,2.4,0.2,4.4c0,0,3.7,1.4,4.7,4.2l4.7-3
			l-0.8-1.8l1.1,0.7"/>
		<path class="st8" d="M85.4,56.9l1.9,2.4c0,0,1.5,3.1,1.3,3.6c-0.2,0.5,0.6,0.4,0.6,0.4l1-0.4l-0.6-5.1L89,55.7"/>
		<g>
			<path class="st26" d="M34,44.8C34,44.8,34,44.8,34,44.8C34,44.8,34,44.8,34,44.8z"/>
			<path class="st26" d="M34.9,51.2c-4.8-4.5-1-6.3-0.9-6.4c-1.2-3.5,2.5-7.3,2.5-7.4c-4.6,0.4-4.5-0.6-4.5-0.6
				c-2.6,1.5-2.3-2-2.3-2c4.5-6.2,0.9-6.9,0.9-6.9s-3.2-0.2-4.3-1.4c0.2,0.2-3.6-4.2-8.9-5.1c-0.1,0.1-2.3-0.2-3.6,0
				c-0.1,0.1-4.2-4.2-5.2-4.9c-1-0.7-1.9-1.4-1.9-1.4s-3.5,2.8-2.8,3.9C4.8,20,3.2,23.1,4,23.2c0,0,5.5,0.8,6.2,1.4
				c0.9,0.8,0.8,3.4,0.8,4.4c0,0,0.9-2.4,2.5-0.5c0.1,0.3,0.5-4.6,5.6-3.1c0.7,0.7,2.6,4.2,0,5.1c0,0.3,7.5-2.4,9-2.6
				c1.5-0.2,2.4,0.4,2.4,0.4l0,0c0.3,0.3,0.8,0.6,0.8,0.6c0.6,2-2.2,4.4-2.2,4.6c-1.1,2.1-5.4,9.4-5.4,9.4s1.1,1.4,1.2,1.3
				c-0.1,8.8,4.4,12.1,4.4,12c0.1-1.7,5.7-3.9,5.7-3.9S34.8,51.2,34.9,51.2z"/>
		</g>
		<path class="st27" d="M49.6,56.9c0,0,12.5-3.9,11.2,7.7c0,0,1.2-9.7-6.1-13.2c0.1,0.1-5.4,1.9-6.1,1.6c-0.1,0.1-5.1,3.2-5.1,3.2
			L49.6,56.9z"/>
		<path class="st19" d="M93.8,22.2c-10.2,5.9-13.5,2.1-13.5,2.1s-0.7,1.8-0.7,1.8c-2.2,4.6-1.7,8.5-1.7,8.5c-0.6,0.6-5.1,7.5-5,7.6
			c0.1,0.1,0.8,0.1,0.8,0.1l4,2.3c0,0,1.1,0.8,2.9,1.7c3.3,2.1,3.1,1.3,6.5,6.1c0.2,0.1,3.2-3.6,3.7-4.9c0-0.1,0.8-5.4,0.4-6
			c2.8-1.4,3.7-4.1,3.9-6.6C95.7,32.9,94,23.5,93.8,22.2z"/>
		<path class="st28" d="M60.5,59.1c0,0-1.2,10.1-6.1,15.3l0.3,0.2c0,0,9-5.9,8.1-12.3c-0.6-1.6-0.6-1.7-0.6-1.7l-1.7-1.7"/>
		<polyline class="st29" points="60.9,62.1 62.2,60.8 60.5,59.1 60.9,62.1 		"/>
		<path class="st30" d="M44.9,54.1c2.4,0.1,3-2.2,2.4-3s-2.1-4.1-3.6-4.2c-1.6,0-2.6,2.8-2.3,3.8C41.6,51.6,42.5,53.9,44.9,54.1z"/>
		<path class="st30" d="M41.7,51.7c0,0-1.6-3.4,1.7-5c2-0.9,5.8,5.8,1.8,7.4C45,54,43,54.4,41.7,51.7z"/>
		<path class="st15" d="M48.3,53c0,0.1,0,0.1,0,0.2c-0.4,0.3-1.2,0.8-1.3,0.8c-0.4-0.1-0.7-0.5-0.7-1c0-0.6,0.5-1,1-1
			C47.9,52,48.3,52.4,48.3,53z"/>
		<path class="st14" d="M49.6,56.9c0,0,2.2,0.8,6.1,15.9c0,0,5-6.6,5.1-8.2c0-0.7,0.5-3.4-0.4-5.4C59.4,56.7,56.5,55.1,49.6,56.9z"
			/>
		<polyline class="st31" points="48.2,53.2 47.4,51.4 49.6,52.9 		"/>
		<path class="st25" d="M46.5,50.1c0,0-2-6.8,2.8-8.1c0.2-0.1,6-2.7,7.4,5.1c0,0.2,0,3.1-0.7,3.7c-0.6,0.6-6.3,2.4-6.4,2.2
			C49.4,53,47.5,52,46.5,50.1"/>
		<g class="st32">
			<path class="st33" d="M31.6,29.3C31.6,29.3,31.6,29.3,31.6,29.3C31.6,29.3,31.6,29.3,31.6,29.3z"/>
			<path class="st33" d="M31.6,29.3C31.6,29.2,31.6,29.2,31.6,29.3C31.6,29.2,31.6,29.2,31.6,29.3z"/>
			<path class="st33" d="M30.6,37.2c-1.6-0.4-1.2-2.4-1.1-2.4c2.5-2.8,2.2-5.1,2.1-5.5c0,1-4.1,6.5-4.1,6.5s0,0,0,0.1
				c0,0-0.1,0-0.1,0.1c0-0.1,0.1-0.1,0.1-0.1c-0.1,0.1-0.1,0.1-0.2,0.2c-0.1,0.1-0.3,0.3-0.4,0.6c-1,1.4-1.5,2.5-1.7,3.2l-1.6,3.1
				c0,0,1.2,1.5,2.4,1.6c1.2,0.1,0.9-2.2,0.8-2.3c-0.5-0.1-0.8-0.3-1-0.6c-0.4-0.6-0.1-1.7,0.3-2.9c0.4-0.5,1.1-1,1.5-1.3
				c0,0.1,0,0.2,0,0.3c0.1,1,0.9,1.2,2.2,1.1C31.1,38.7,30.5,37.2,30.6,37.2z"/>
		</g>
		<path class="st30" d="M49.7,48.8c0,0-1.6-3.3,1.7-4.9c0.1,0,3.4-0.9,4.7,2.7c0,0,1.4,3.8-3,4.6C53,51.1,51,51.5,49.7,48.8z"/>
		<path class="st34" d="M54.2,44.3c0,0-0.9,4.7-4.8,3.6c0,0-0.7-2,1.4-3.6C50.8,44.2,52.1,43.3,54.2,44.3z"/>
		<path class="st19" d="M56.3,50.6l2.2-1c0,0,9.9-7,12.1,5c0.1,0.1,1.4,6.7-4.8,18.2c0.2,0.2-2.2,2.4-5.2,3.6c0-0.1,9.1,7.8,8.6,9.3
			c0,0.2,0.3,1.2,0.3,1.2h2.3h4.4l-0.8-1.2l0.8-0.6c0,0-2.2-1.6-3.4-1.8c-1.2-0.2-4.8-0.4-3.7-7c0.1-0.2,8.4-13.8,14.6-14.6
			c0.1,0,3-0.9,4,5.5c0.2,0.2,1.1,6.6,0.8,7.4c0,0.3,0.1,1.4,0.1,1.4s1.5-3.7,0.4-9.4c0-0.1-0.6-5.6-2.1-7.6c-1.4-2-5.1-5.8-6.4-6.9
			c0.4-0.1-5.6-8.2-7.6-9.8c-0.2-0.2-9.2-5.8-10.6-5.5c-0.2,0.3,2.3-2.8,2-3.3c-0.3-0.6-3.2-4.4-7.9-3.1c0,0.1-0.4,3.1,0,3.4
			c0.4,0.3-6.2-1.9-9.5-1.7c-3.3,0.2-10.1,2.3-12.1,8c0,0.2-2.2,4.2,0,5.4c0.4,0.1,2.6,0.7,2.6,0.7s-0.6,5.2,0,5.7
			c0.2-0.2,1.2,0.1,1.2,0.1s-1.3-5.9,1.2-6.2c0.3,0,3.8-0.1,6,3.4s-2.3-4.2,2.6-6.9c0.2-0.2,5.2-2.8,7.5,2.3
			C56.6,45.5,57.3,48.9,56.3,50.6z"/>
		<path class="st24" d="M51,47.9c0,0-0.2-2,0.9-2.1c0.6-0.1,2.4,0.3,2.3,1.9c-0.1,1.6-0.9,1.5-0.9,1.5S51.9,49.4,51,47.9z"/>
		<path class="st34" d="M43.3,46.7c0,0,2.5,4.1-1.9,4.1C41.4,50.8,40.6,48.2,43.3,46.7z"/>
		<path class="st35" d="M2.8,41.7c0,0,6.6-7.2,9.4-8.3s15.9-7.1,18.4-5L11,39.9l-7.3,2L2.8,41.7z"/>
		<circle class="st15" cx="50.8" cy="46.5" r="0.9"/>
		<circle class="st15" cx="55" cy="50.2" r="1"/>
		<path class="st24" d="M43.2,51.2c0,0-0.6-1.2,0.6-2c0.3-0.1,0.9-0.7,2,0.6c0.1,0.2,1.2,1.1,0.2,2.2c0,0-1.1,0.8-2.1-0.1
			C43.9,51.9,43.2,51.2,43.2,51.2z"/>
		<path class="st35" d="M28.4,27.9c-0.9-0.1-7.5,1.9-7.5,1.9l-8.7,3.6c-3.4,1.4-9.4,8.3-9.4,8.3s7.5,0.5,8.2,0.2
			c0.7-0.3,2.1-2.2,2.1-2.2l1,0.1c0,0,5.6,2.9,7.5,4.8c-0.1,0.1-0.1,0.2-0.1,0.2s0.3,0.4,0.6,0.4c0,0,0.1-0.1,0.3-0.4
			c0,0,0.1-0.1,0.1-0.1c1.5-2.2,6.6-11.2,6.6-11.2c1.8-1.7,2.3-3.5,2.3-3.4C32.2,28.5,29.4,28,28.4,27.9z"/>
		<ellipse transform="matrix(0.8706 -0.492 0.492 0.8706 -12.8928 11.4109)" class="st15" cx="15.2" cy="30.2" rx="0.6" ry="0.6"/>
		<path class="st23" d="M12,32.9c0,0,1.1-1.4,2.5-1.2c0,0,0.5,0.5,0.5,0.5l-2.8,1.1L12,32.9z"/>
		<path class="st8" d="M73.7,42.4c0,0,9.3,5.1,11,6.8c1.7,1.7,4.8,7,5,8.2s-4.6-0.5-4.6-0.5l-4.7-5.2C80.3,51.7,76.5,46.3,73.7,42.4
			z"/>
		<path class="st36" d="M17,41.5c0,0,4.7-5.5,5-5.9c0.3,0.2,1.5,0.1,0.9,3.5c0,0.1-0.6,5.5-1.5,5.7C21.4,44.8,19.3,42.6,17,41.5z"/>
		<path class="st37" d="M14,39.8l2.9,1.7l4.9-5.9c0,0,1.5,0.3,1.1,2.9s1-4.4-0.4-5.2c-0.3,0.1-2.2,1.2-2.6,2.2
			C19.9,35.7,19.5,37.7,14,39.8z"/>
		<path class="st37" d="M3.7,41.9c0,0,7.1-2.4,9.3-2.1c0.1,0.1-1.6,2.2-2.3,2.3S3.7,41.9,3.7,41.9z"/>
		<path class="st38" d="M5.1,39.4c0,0,17.2-11.1,24.4-11.1c-0.1-0.1,1.6,0.3,1.2,0.5s-6.7,3.1-7.6,3.6c-1,0.5-2.9,2.9-2.9,2.9
			s-2.1,3.3-5.9,4.4c0.1,0-6.1-0.2-6.9,1C7.3,40.8,5.8,39.4,5.1,39.4z"/>
		<path class="st39" d="M20.9,34.5l1.8-1.9l8-3.8c0,0,0.2-0.2,0.6,0.1c0,0-0.6,3.7-2.6,3.8c0,0-5.1,0.3-5.7,0.9
			C23,33.7,22,33.3,20.9,34.5z"/>
		<path class="st35" d="M5.1,39.4"/>
		<path class="st6" d="M32.5,37.2c0,0,18-12.9,13-25.7l-0.4-1c0,0-1.3,13.1-3.3,14c0.2-0.1-9,12-10,12.3L32.5,37.2z"/>
		<path class="st40" d="M28.4,55.7c0,0-26.5,16.3-45-6.1c0-0.2,0-28.9,0-28.9c3-1.6,8.6,47.3,42.5,30.4L28.4,55.7z"/>
		<path class="st21" d="M87.1,64.4c0,0-8.8,16.4-17.9,15.9l0-4c0,0,5.6-7.7,6.3-8.6c0.7-0.8,4.1-4.4,5.8-5.2
			c1.7-0.8,2.7-1.5,4.3-0.5C85.7,62.1,86.9,63.2,87.1,64.4z"/>
		<path class="st6" d="M-15.2,22.2c0,0,10.9,41.1,40.9,28.3c0.1,0,1.2,0.3-0.2,1c-0.1,0.1-0.5,0.3-0.6,0.4
			C19.2,55.9-11.1,62.2-15.2,22.2z"/>
		<path class="st41" d="M6.9-2l28.2,9c0,0,15.7,3.5,17.5,9.6C53,16.6,41.3-2,41.3-2"/>
		<path class="st40" d="M45.2,10.5C44.7,10,49.8,23,32.1,37.4l4.2,0.2c0-0.1,4.7-5.4,11.7-5.5c0,0.2,9.3-14.1,3.2-17.9
			C49.6,12.9,45.2,10.5,45.2,10.5z"/>
		<path class="st42" d="M50.7,16.5c0,0,0.4,10.3-4.8,15.3c-0.4,0.5-0.4,0.6-0.4,0.6s1.7-0.4,2.6-0.2C48.2,32.2,55.4,18.1,50.7,16.5z
			"/>
		<path class="st43" d="M90.2,7c0,0-1.3,4.3-0.4,6.4C89.8,13.5,89.4,10.1,90.2,7z"/>
		<path class="st43" d="M83.5,17.5c0,0,0,1.4-1.5,1.7c-1.6,0.3-3.9,0.8-5.1,0.5c-1.2-0.3-0.9-0.2-0.9-0.2S82.2,20,83.5,17.5z"/>
		<path class="st43" d="M78.6,4.5c0,0-4.4,2.3-2.5,15.6C76.1,20.1,75.1,7.7,78.6,4.5z"/>
		<path class="st44" d="M82,62.3c0,0-0.8,11.7-12.2,13.1C69.9,75.5,76.9,64,82,62.3z"/>
		<path class="st43" d="M77.2,5.5c0,0-3.8-1.8-5.1,0s-1.4,7.9-1.4,7.9s1.5-1.1,3.6,3.1c0,0,0.2-3-3.1-3.7c0,0-0.4-4,1.4-7.4
			c0,0,1.6-1,4.5,0.3C77.2,5.9,77.2,5.5,77.2,5.5z"/>
		<path class="st43" d="M85,5c0,0-3.9,3.6-2,11.7C83,16.8,80,8.2,85,5z"/>
		<path class="st43" d="M67.3,14.5c0,0-2.3,3.6,1.2,5.1C68.5,19.6,65.7,18,67.3,14.5z"/>
		<path class="st43" d="M70.7,13c0,0-2.4-0.2-3.4,1.5C67.3,14.5,68.7,13.2,70.7,13z"/>
		<path class="st45" d="M74.3,16.5c0,0-0.1,3.4-4.5,3.7C69.8,20.2,73.7,19.6,74.3,16.5z"/>
		<path class="st46" d="M89.8,9c0,0,1.1,2.9,0.9,3.9c0-0.1-0.4,0.7-1.1,0.9C89.8,13.7,89.4,9.7,89.8,9z"/>
		<path class="st15" d="M79.1,51.2c0,0,2.4,13.8-1.2,18.9C78,70,75.3,74.9,65,74.2c-0.1,0-1.3,1-1.3,1s9.1,0,13.4-3.4
			C77.2,71.9,83,67.5,79.1,51.2z"/>
		<path class="st15" d="M76.6,70c0,0-0.2,4.6,2.1,7.3c0,0.1,2.3,1.9,4.2,0c0,0,2.3-2.2,0.9-3.9C82.5,71.7,79.5,70,76.6,70z"/>
		<path class="st47" d="M39.5,65.5c0,0,3.8,7.7,8.3,11.8C47.8,77.3,42.4,73.2,39.5,65.5z"/>
		<path class="st43" d="M83.5,17.5c0,0,3.3,1,6-2.3C89.5,15.2,87,18,83.5,17.5z"/>
		<path class="st43" d="M89.6,13.8c0,0,0.4,1-0.1,1.5c-0.5,0.6-0.9,0.9-0.9,0.9S89.8,15.1,89.6,13.8z"/>
		<path class="st45" d="M73.6,18.5c0,0,1.1,0.9,2.5,0.8C76.1,19.4,74.7,19.1,73.6,18.5z"/>
		<path class="st48" d="M33,53.2c0,0,12.1,4.5,4.1,9.9c0,0-4.6,2-6,1.1c0,0,4.1,3.1,7.3,1.9c-0.1,0.1,3.8-1,4.7-4.1
			c0,0,1.7-4,0.4-5.8c-1.3-1.9-3.3-4.2-5.9-4.3C37.6,51.9,34.7,52,33,53.2z"/>
		<circle class="st15" cx="42.3" cy="49.1" r="1"/>
		<path class="st49" d="M34.2,59.2c0,0,1.1,4.2,2.8,4c1.7-0.2,3.2-2.7,3-4.5s-1.6-3-2.3-2.3C37,57,34.1,58.6,34.2,59.2z"/>
		<path class="st49" d="M33,53.2c0,0-5.2,5.5-0.5,11.2c0.1,0-1.1,0.2-1.4-0.1c-0.4-0.3-2.4-1.4-2.8-4.6C28.3,59.8,27.5,55.9,33,53.2
			z"/>
		<path class="st11" d="M34.2,59.2c0,0,3.1-3.9,4.1-3.8c1,0.1,2.4,2.5,1.7,4.2c-0.7,1.7-1.7,3.7-3,3.6C37.1,63.1,35,63.6,34.2,59.2z
			"/>
		<path class="st50" d="M34.9,59.3c0,0,0.8,3.2,2.2,3.1c1.3-0.2,2.4-2.1,2.3-3.4c-0.1-1.3-1.2-2.3-1.8-1.8
			C37,57.6,34.8,58.9,34.9,59.3z"/>
		<path class="st50" d="M36.7,58.4c0,0,0,2.8-0.5,3.6c0,0,0.9,0.3,1,0c0.1-0.3,0.4-2-0.6-3.7"/>
		<path class="st50" d="M29.3,60.2c1.1-0.3,2.3-0.3,3.4,0c0,0,1.7,2.9,1.4,3.4c-0.2,0.5-1.5,1.1-2.1,0.6
			C31.6,63.8,29.4,61,29.3,60.2z"/>
		<path class="st51" d="M70.5,54.3c0,0-5,19.5-7.9,21.2c0,0,2.3-1.2,3.2-2.6C66.7,71.4,72,63.1,70.5,54.3z"/>
		<path class="st51" d="M65,47.7c0,0,4.6,2.8,5.6,7C70.6,54.7,70.1,48.7,65,47.7z"/>
		<path class="st52" d="M34.2,44.7c0,0-1.7,0.9-1.7,2s-0.2,2.4,2.4,4.5l0.1,1.1c0,0,1.4-0.5,2.6-0.4c0,0-0.3-2.2,0-5.7L34.2,44.7z"
			/>
		<path class="st21" d="M58,31.6c0,0-0.2,2,0.2,2.4s3.2,1.6,3.2,1.6s1.6-1.6,1.5-2S60.2,31.1,58,31.6z"/>
		<path class="st53" d="M76.6,70c0,0,0.7,8.1,5,8C81.7,78,76.8,79.5,76.6,70z"/>
		<path class="st54" d="M76.6,70c0,0,2.9,7.9,5.6,7.8c-0.1,0.1-2.1,0.8-3.1-0.3c-1-1.1-1.9-2.4-2.2-4.2S76.6,70,76.6,70z"/>
		<path class="st55" d="M60.1,76.7c0,0,8.5,7,9,9.5c0.1,0,0.4,0,0.4,0s0.7-1.3-3.9-5.3c0.1,0-4.8-4.4-4.8-4.4L60.1,76.7z"/>
		<path class="st55" d="M74.1,43c0,0,10.5,12.7,11.7,13.8c1.2,1.1,3.4,4.2,3.1,6.4c0,0.2-0.3-0.3-0.3-0.3S87.8,60.2,86,58
			c-1.8-2.2-5.7-6.3-5.7-6.3L74.1,43z"/>
		<polygon class="st56" points="90.2,78.6 82.2,86.2 84,86.3 91,79.4 		"/>
		<path class="st52" d="M77.9,34.7c0,0,3.5,6.3,13.3,7C91.2,41.7,82.7,41,77.9,34.7z"/>
		<path class="st57" d="M65,47.7c0,0,4.1,7.9,1.5,11.9c-2.7,4-3.6,3.4-3.6,3.4s-1-3.9-2.4-3.8c0,0-0.8-4.8-5.3-7.9l3.3-1.6
			C58.5,49.7,62.3,47.3,65,47.7z"/>
		<path class="st57" d="M67.4,56.8c0,0-1.2,19.8-9.5,19.2c0,0,1.6,0.1,4-4.5c0,0,2-5.2,1-8.5C62.9,63,65.8,60.5,67.4,56.8z"/>
		<path class="st58" d="M43.9,77.9c0,0-4.2-0.4-6.3-7.7c0.1,0.1-0.9-3.9-0.9-3.9S37,76.4,43.9,77.9z"/>
		<path class="st59" d="M46.5,50.1c0,0-1.4-4.2,0.5-6.6C47.1,43.5,45.4,45.8,46.5,50.1z"/>
		<path class="st59" d="M47.1,43.5c0,0,1.6-2.2,5-2C52.1,41.5,49.1,40.9,47.1,43.5z"/>
		<path class="st59" d="M52.1,41.5c0,0,2.5-0.1,3.8,2.7C55.9,44.3,55.3,41.6,52.1,41.5z"/>
		<path class="st59" d="M56.1,44.7c0,0,1.5,2.6,0.3,5.8C56.4,50.6,57.3,47.7,56.1,44.7z"/>
		<path class="st48" d="M36.5,54.3c0,0-4.9,3.5-3.8,5.9c0,0-1.8-0.5-2.2-0.2c0,0-0.4-4.3,2.5-6.8L36.5,54.3z"/>
		<path class="st60" d="M36.5,58c0,0,1.2,2.9,0.7,4.3c0.1,0.1,0.8-0.3,1.1-0.6c0.3-0.3,0-1.4,0-1.4l0.7,0.4c0,0,0.5-1,0.4-1.2
			c-0.2-0.2-1.6-1.3-1.2-2.4c0,0-0.1-0.2-0.5,0.1s0,1.2,0,1.2l-0.7-0.6L36.5,58z"/>
		<path class="st61" d="M38.1,57c0,0-0.1,1.6,1.2,2.4C39.4,59.4,39.7,57.7,38.1,57z"/>
		<path class="st62" d="M33.2,61c0,0,0.8,2.8,0.6,3c0,0,0.6-0.2,0.4-0.9C34,62.4,33.2,61,33.2,61z"/>
		<path class="st24" d="M12.6,31.9c0,0-0.4,0.8,0.4,1.2l0.8-0.4C13.8,32.8,13.4,31.7,12.6,31.9z"/>
		<polygon class="st60" points="30.6,60 29.8,61.2 30.8,62.7 		"/>
		<path class="st50" d="M30.6,60l2.7,1c0,0,0.8,2.8,0.6,3c-0.2,0.2-1.3,0.6-1.6,0.2c-0.4-0.4-1.3-1.5-1.3-1.5L30.6,60z"/>
		<path class="st62" d="M29.3,60.2c0,0,2.4,4.3,3.2,4.2C32.5,64.4,31.5,64.8,29.3,60.2z"/>
		<path class="st62" d="M32.5,64.4c0,0,1.1,0.1,1.7-0.8C34.2,63.6,33.4,64.4,32.5,64.4z"/>
		<path class="st62" d="M32.8,60.2c0,0,1.6,2.8,1.4,3.4C34.2,63.6,34.1,63.2,32.8,60.2z"/>
		<path class="st62" d="M29.3,60.2c0,0,1.4-0.5,3.4,0C32.8,60.2,30.3,60,29.3,60.2z"/>
		<path class="st62" d="M35,59.1c0,0,0.5,3.7,2.5,3.1c-0.2,0,1.7-0.5,2-2.9c0,0-0.6,2-2.1,2.7C37.3,62.1,36.1,62.9,35,59.1z"/>
		<path class="st63" d="M13.5,28.5c0,0,1.1-5,5.5-3.2C19,25.3,15.1,23.6,13.5,28.5z"/>
		<path class="st63" d="M11,29c0,0,0.7-2.6,2.5-0.5C13.5,28.5,11.9,26.8,11,29z"/>
		<path class="st63" d="M20.1,26.7c0,0,1.5,2.1-0.7,3.7C19.4,30.4,20.7,29.6,20.1,26.7z"/>
		<path class="st64" d="M69.5,76c0,0-2.3,7.1,3.8,7.4C73.2,83.4,67.1,84.3,69.5,76z"/>
		<polygon class="st65" points="16.1,-1.5 33.8,6.2 20.5,-1.7 15.6,-1.8 		"/>
		<polygon class="st65" points="28,-1.7 31.9,1.8 29.1,-1.7 		"/>
		<polygon class="st65" points="33.5,-1.7 36.1,0.6 34.5,-1.7 		"/>
		<ellipse transform="matrix(0.893 -0.4501 0.4501 0.893 -13.1609 8.9834)" class="st15" cx="12.3" cy="32.2" rx="0.4" ry="0.6"/>
		<polygon class="st42" points="35.1,-1.6 36.1,-0.7 35.8,-1.7 35.1,-1.7 		"/>
		<path class="st65" d="M39-1.5c0,0,2.6,5.7,4.3,6.8c0,0,0.2-0.6-0.2-1.1c-0.4-0.5-3-5.1-3-5.1l0.1-0.8h-1.4L39-1.5z"/>
		<path class="st66" d="M4.9,17.6c0,0,2,0.8,2.5,1.3C7.5,18.9,6.1,17.2,4.9,17.6z"/>
		<path class="st66" d="M5.8,16.2c0,0,1.3,0.3,1.6,0.9C7.3,17.1,7,16,5.8,16.2z"/>
		<path class="st66" d="M5.1,18.9c0,0,1,0.3,1.5,0.8C6.6,19.6,6.1,18.7,5.1,18.9z"/>
		<path class="st63" d="M7.3,23.1c0,0,3.2-0.7,4.9,0.9c0,0-1,0.4-1.6,0.3C9.9,24.3,7.3,23.1,7.3,23.1z"/>
		<path class="st42" d="M-15.8,48.1c0,0,15.5,20.6,43.3,5.9c0.1-0.1,1.1,1.6,1.1,1.6S4.2,71.5-15.8,50.8
			C-15.9,51.2-15.8,48.1-15.8,48.1z"/>
		<path class="st67" d="M23,33.6c0,0,4.4,0.4,4,1.9S22,45.2,22,45.2l-0.6-0.4c1.3-1.1,1.5-5.4,1.9-8.2C23.4,35.4,23.2,34.3,23,33.6z
			"/>
		<path class="st68" d="M23,33.6c0,0,4.4,0.6,4,1.8c-0.4,1.2-5,9.8-5,9.8l2.5-3.9l3.3-5.6l1.3-2.2l0.7-1.2c0,0-0.6,0.4-1,0.4
			C28.7,32.8,24.3,32.9,23,33.6z"/>
		<path class="st39" d="M5.1,39.4c0,0,4-4.7,7.6-6.2c3.6-1.5,7.9-3.4,8.9-3.6c1-0.2,5.4-1.7,6.5-1.6s1.9,0.1,2.4,0.4
			c0,0-3-0.3-6.3,1S11.8,34.5,5.1,39.4z"/>
		<path class="st69" d="M20.8,24.9c0,0,3.4,2.4,3.9,3.1c0,0,1.9-0.6,2.6-0.4C27.4,27.6,23.3,24.5,20.8,24.9z"/>
		<path class="st70" d="M78.2,47.9c0,0,6.5,7.8,8.8,10.3C87.1,58.3,79.5,49,78.2,47.9z"/>
		<path class="st70" d="M59.9,76.9c0,0,5.4,4.5,6.3,5.3c0,0-5.9-5.5-6.3-5.5V76.9z"/>
		<path class="st29" d="M54.6,74.6c0,0,3.1-3.4,3.9-3.4c0.8,0,2.3,1.7,2.3,1.7L59.3,75l-0.7-0.4c0,0-0.4,1.1-0.8,1.1
			C57.3,75.8,55.9,76.3,54.6,74.6z"/>
		<path class="st29" d="M61.9,66.6l-2.4,1.9V69l-1.1,1.7l2.5,2.2c0,0,1.9-2.2,1.9-4.9c0.1,0.1,0.1-3.4,0.1-3.4l-1.1,1L61.9,66.6z"/>
		<path class="st29" d="M62.1,62.6c0,0,0.1,1.5,0.4,1.7c0.3,0.1,0.5-0.5,0.5-0.7c0-0.3-0.3-1.1-0.3-1.1S62.1,62.3,62.1,62.6z"/>
		<path class="st71" d="M11.7,86.2c0,0,2.1-0.9,2.7-0.8c0.5,0.1-0.3,0.8-0.3,0.8H11.7z"/>
		<path class="st71" d="M18.3,86.1c0,0,2.6-4,4.7-4H24c0.1,1.3,0.4,2,0.6,3.1c-0.1,0.4-0.2,0.7-0.4,1.1c-0.6,0-1.3,0-1.2,0h-4.7
			L18.3,86.1z"/>
		<path class="st46" d="M11.6,81.6c0,0-9.8,1.2-10,4.8C1.6,86.4,1.6,83.6,11.6,81.6z"/>
		<path class="st46" d="M12.5,77.6c0,0-8,1.1-9.3,3.5c-0.1,0-0.9,2.3-0.4,3.2C2.8,84.4,1.4,79.1,12.5,77.6z"/>
		<path class="st71" d="M82.7,13.3c0,0,2.6,3.2,4.9,2.6c0.1,0.2-2.3,2-3.6,2C84,17.9,82.4,14.8,82.7,13.3z"/>
		<path class="st71" d="M72.6,6c0,0,2.2,3.9,1,6.1c-0.1,0-1.1,1.4-2.7,1.5C70.8,13.3,70.5,7.1,72.6,6z"/>
		<path class="st72" d="M88.3,16.4c0,0,3.6,2.6,5.6,2.5c0,0.1-0.7,2.7-0.2,3.3c0,0-9.3,5.7-13.5,2.1c0,0-0.7-2.2-7.9-2.5
			c-0.1,0-2.5-1.6-2.5-1.6s3.3-0.6,3.7-1.7c0,0,1.9,0.7,2.5,0.8c0.6,0.1,2.9,0.9,6.6-0.4c0.2,0,0.8-0.7,0.8-1.4
			C83.5,17.5,86.7,17.9,88.3,16.4z"/>
		<path class="st73" d="M76.1,22.2c0,0,7.2-2.1,7.4-4.7c0,0-2.2,5.8-2.9,7C80.6,24.5,78.2,22.1,76.1,22.2z"/>
		<path class="st71" d="M79.1,16.1L79.1,16.1C79.5,14.8,77.5,6,77.5,6c-1.4,0.9-1.6,9-1.6,9s0,0,0,0c-0.1,2.1,0,4.6,0,4.6
			c4.8,0.4,6.6-2,6.6-2C81.2,17.8,80.1,17.1,79.1,16.1z"/>
		<path class="st71" d="M12.7,78.2c1.7,0.3,6.5-3.5,6.5-3.5s-8-0.1-8,0L12.7,78.2z"/>
		<path class="st74" d="M49.4,12.8c0,0,8.4,5.7-2.3,19.4l1.1,0C48.2,32.2,58.1,16.8,49.4,12.8z"/>
		<polygon class="st75" points="49.2,61 49.2,61.8 49.6,61.6 49.6,61 		"/>
		<polygon class="st75" points="51.3,60.8 51.6,61.4 51.9,61 51.6,60.6 		"/>
		<polygon class="st75" points="49.6,58.4 49.8,59.1 50,59.1 49.8,58.4 		"/>
		<polygon class="st75" points="52.8,60 53,60.2 53.3,60 53,59.6 		"/>
		<polygon class="st75" points="51.3,64.2 51.6,64.6 51.9,64.4 51.6,64 		"/>
		<polygon class="st75" points="53.6,62.9 53.7,63.7 54,63.1 		"/>
		<polygon class="st75" points="54.9,61 55.1,61.5 55.4,61.3 		"/>
		<polygon class="st75" points="56.1,62.5 56.1,62.9 56.3,62.5 		"/>
		<polygon class="st75" points="54.9,64.8 54.9,65.6 55.4,65.2 		"/>
		<polygon class="st75" points="54.1,59.1 54.6,59.4 54.9,59.3 54.5,58.9 		"/>
		<path class="st76" d="M-5,48.8c0,0-1,4.3-1.7,5.8C-6.7,54.7-5.1,51.6-5,48.8z"/>
		<path class="st76" d="M-8.6,41.8c0,0,0.7,6.6-2.2,10.4C-10.9,52.2-8.8,48.9-8.6,41.8z"/>
		<path class="st76" d="M-12.3,37.7c0,0-0.3,9-0.9,11.1C-13.1,48.8-11.7,44.6-12.3,37.7z"/>
		<path class="st76" d="M-15.2,28.3c0,0,1.8,8.9,1.3,11.5C-13.9,39.8-13.1,34.5-15.2,28.3z"/>
		<path class="st76" d="M-3.4,47.4c0,0,1.1,2.9-1.2,7.6C-4.6,54.9-3.5,52.4-3.4,47.4z"/>
		<path class="st76" d="M-1.4,51.2c0,0,0.1,2.8-1.7,6.4C-3.1,57.7-0.7,54.5-1.4,51.2z"/>
		<path class="st76" d="M0.5,52.2c0,0-0.1,4.9-1,6.3C-0.5,58.5,1.2,57,0.5,52.2z"/>
		<path class="st76" d="M2.7,52.9c0,0-0.1,4.1-1,6.3C1.6,59.2,3.4,57.7,2.7,52.9z"/>
		<path class="st76" d="M4.6,53.9c0,0,0.4,3.4-0.5,5.8C4,59.7,5.8,57.7,4.6,53.9z"/>
		<path class="st76" d="M7.4,55c0,0,0,3.4-0.8,4.8C6.8,59.8,8.2,58.3,7.4,55z"/>
		<path class="st76" d="M9.1,56.4v3.4c0,0,0.9-2.8,0.8-3.4c0,0,0.1-1.3-0.4-1.4S9.1,56.4,9.1,56.4z"/>
		<path class="st76" d="M12.4,56.1c0,0-0.3,3.1-0.9,3.8C11.4,59.8,13,58.3,12.4,56.1z"/>
		<path class="st76" d="M14,55c0,0,0.3,2.7-0.3,4.2c0,0,1.3-2.9,1.1-3.6C14.8,54.9,14,55,14,55z"/>
		<path class="st76" d="M16.8,56.1l-0.5,3.5C16.3,59.5,17.3,57,16.8,56.1z"/>
		<polygon class="st76" points="18.2,55.3 18.6,57.8 18.6,55.3 		"/>
		<polygon class="st76" points="-6.7,46.5 -8.6,52 -6.2,46.5 		"/>
		<polygon class="st76" points="-11.1,40 -11.3,49.6 -10.5,40 		"/>
		<polygon class="st76" points="20.2,54.6 20.5,57.8 20.5,54.5 		"/>
		<path class="st76" d="M37.8,33.3l1.1,1.7C38.9,35.1,37.4,34,37.8,33.3z"/>
		<path class="st76" d="M38.9,31.2c0,0,0.5,2.5,1.1,3C40.1,34.4,38.4,33.2,38.9,31.2z"/>
		<path class="st76" d="M40.1,29.9l1.9,2.8C42.1,32.7,40,31.3,40.1,29.9z"/>
		<path class="st76" d="M42.3,27.2c0,0,1.8,3.1,2.4,3.1C44.8,30.4,42.5,29.5,42.3,27.2z"/>
		<path class="st76" d="M44.4,24.2c0,0,1.9,3,2.5,3.1C47.4,27.5,45,27.5,44.4,24.2z"/>
		<path class="st76" d="M45.3,19.2c0,0,2.3,3.8,2.9,4.4S45.7,22.6,45.3,19.2z"/>
		<path class="st76" d="M46.5,14.9c0,0,2.2,4.2,3.3,4.8C49.9,19.6,47,18.8,46.5,14.9z"/>
		<polygon class="st77" points="63,42.8 66.6,44.9 63,43.2 		"/>
		<polygon class="st77" points="72.2,60.3 74.9,62.9 74.4,63.3 		"/>
		<polygon class="st77" points="73.6,51.2 75.4,52.4 74.9,52.8 		"/>
		<path class="st77" d="M61.9,47.4c-0.1,0-1.2-1.5-1.2-1.5l2.6,1.1l-1.3-1.7l4.3,2.5C66.2,47.7,64,47.5,61.9,47.4z"/>
		<polygon class="st8" points="50.7,76.6 51.4,77.2 52.8,76 52.6,75.7 		"/>
		<polygon class="st77" points="76.6,66.1 74.7,64.5 77.3,65.8 76.7,66.4 		"/>
		<path class="st77" d="M68.7,66.9c0-0.1,1.3,2.1,1.3,2.1l-1.5-0.9C68.6,68.1,68.7,67.2,68.7,66.9z"/>
		<path class="st77" d="M70.5,53.9c0,0,2.8,8-5,19.4C65.3,73.6,72.6,61,70.5,53.9z"/>
		<path class="st77" d="M60.8,76.5c0,0,4.1-2,4.8-3.1C65.5,73.4,64.4,75.3,60.8,76.5z"/>
		<path class="st77" d="M64.6,47.6c0,0,4.7-0.2,6,7C70.6,54.7,70.2,47.6,64.6,47.6z"/>
		<path class="st77" d="M58.5,49.7c0,0,3.9-2.6,6.5-2C65,47.7,62.5,46.6,58.5,49.7z"/>
		<path class="st77" d="M33.5,70.3c0,0,2.5,5.2,10.4,7.7C43.9,77.9,36.3,76.4,33.5,70.3z"/>
		<path class="st77" d="M43.9,77.9c0,0,1.8,0.3,4.5-0.6C48.4,77.3,45.6,78.7,43.9,77.9z"/>
		<path class="st77" d="M52.6,75.5c0,0-2.9,1.8-4.2,1.8C48.4,77.3,51.1,77.3,52.6,75.5z"/>
		<path class="st77" d="M40,45.8c0,0,4.4-0.1,6.6,4.3C46.5,50.1,44.7,45.3,40,45.8z"/>
		<path class="st77" d="M58,31.6c0,0-0.4,2.1,0.3,2.5C58.4,34.2,57.5,34,58,31.6z"/>
		<path class="st77" d="M62.9,33.6c0,0-1.6-2.7-4.9-2C58,31.6,61,31.3,62.9,33.6z"/>
		<path class="st77" d="M62.9,33.6c0,0,0,0.7-1.5,2C61.4,35.6,62.9,34.8,62.9,33.6z"/>
		<path class="st77" d="M58.2,34c0,0,2.2,1.3,3.2,1.6C61.4,35.6,58.6,34.8,58.2,34z"/>
		<path class="st78" d="M43.5,56.2l6.1,0.7c0,0,1.1,1,1.7,2.5c0,0-1.3-2.1-1.8-2.2C49.6,57.3,43.5,56.2,43.5,56.2z"/>
		<path class="st79" d="M79.1,75.1c0,0,2.7,1.7,3.5,1.1c0.7-0.6,1.2-1.6,1.1-2.2c-0.1-0.6-0.3-1.2-0.3-1.2s0.9,0.9,0.9,1.5
			c0.1,0.7-0.2,1.5-0.6,2c-0.4,0.6-1.4,1.6-1.5,1.4C82.2,77.8,80.8,78.3,79.1,75.1z"/>
		<path class="st27" d="M49.6,56.9c0,0,8.9-2.8,10.8,2.2C60.5,59.1,58.7,55,49.6,56.9z"/>
		<path class="st78" d="M60.5,59.1c0,0,1.3,4.2-0.4,7.2c-0.1,0.2-4.1,6.7-5.7,8.1c0,0,5.4-7.7,5.6-8.9C60,65.6,61.1,62.8,60.5,59.1z
			"/>
		<path class="st41" d="M34.5,6.7c0,0,12.2,4.1,13.4,5.2C47.9,11.9,41.2,6.4,34.5,6.7z"/>
		<path class="st78" d="M55.4,73c0,0-2.7,4.4-11.5,4.9c0,0,7.7,0.4,11.8-4.9C55.7,73.1,55.4,73,55.4,73z"/>
		<path class="st78" d="M31.6,64.7c0,0,0,4.2,5.5,9.8c0,0-5.1-3.9-5.8-9.7C31.3,64.7,31.3,64.4,31.6,64.7z"/>
		<path class="st78" d="M35.5,73c0,0,5.8,4.7,9.3,5C44.9,78,40.2,77.7,35.5,73z"/>
		<path class="st78" d="M60.5,59.1c0,0,1.5,0.8,2.4,3.8C62.9,63,62,59.4,60.5,59.1z"/>
		<path class="st78" d="M62.3,61.4c0,0,1.4,3.5,0.4,7.2C62.7,68.6,64.2,64.9,62.3,61.4z"/>
		<path class="st78" d="M63,67.9c0,0-2.7,9.9-6.9,7.8C56.2,75.7,59.9,79,63,67.9z"/>
		<path class="st78" d="M54.4,74.4c0,0,0.9,1.4,2.8,1.6C57.2,76,55.7,76.2,54.4,74.4z"/>
		<path class="st80" d="M49.5,48.4C48.7,46.3,50,45,50,45S48.9,46.7,49.5,48.4z"/>
		<path class="st80" d="M49.3,47.8c0,0,0.7,2,1.4,2.5C50.8,50.4,49.5,49.2,49.3,47.8z"/>
		<path class="st80" d="M50.2,49.7c0,0,1,1.7,3.2,1.4C53.5,51.1,51.5,51.7,50.2,49.7z"/>
		<path class="st80" d="M54.3,50.8c0,0-0.7,0.3-1.1,0.3C53.2,51.1,54,50.9,54.3,50.8z"/>
		<path class="st80" d="M50,45c0,0,0.9-1.7,3.4-1C53.4,44,51.2,43.4,50,45z"/>
		<path class="st80" d="M53.2,43.9c0,0,1.7,0.6,2.3,1.7C55.5,45.6,55,44.4,53.2,43.9z"/>
		<path class="st80" d="M55.5,45.6c0,0,1,1.6,0.6,3C56.2,48.6,56.4,47.4,55.5,45.6z"/>
		<path class="st80" d="M55.8,49.5c0,0,0.4-0.8,0.4-1.4C56.3,48.2,56.1,49.1,55.8,49.5z"/>
		<path class="st80" d="M43.3,46.7c0,0-2.7,1.3-1.9,4.1C41.4,50.8,40.5,48.7,43.3,46.7z"/>
		<path class="st80" d="M46.6,53.7c0,0-3.6,2-5.2-2.8C41.4,50.8,42.6,55.3,46.6,53.7z"/>
		<path class="st80" d="M40,45.8"/>
		<path class="st25" d="M46.6,49.9c0,0,0.5,1.3,0.9,1.6c0.4,0.3-0.2-0.9-0.2-0.9L46.6,49.9z"/>
		<path class="st81" d="M15.7,32c0,0-1.9-1.6-1.3-2.7C14.4,29.2,14,30.4,15.7,32z"/>
		<path class="st81" d="M14.4,29.3c0,0,0.4-0.8,1.1-0.7C15.5,28.5,14.9,28.6,14.4,29.3z"/>
		<path class="st81" d="M18.5,30.7c0,0-2-2.3-3.1-2.2C15.5,28.5,16.7,28.7,18.5,30.7z"/>
		<path class="st81" d="M12,30.6c0,0,1.1-0.2,3,1.7C15,32.3,13.3,30.3,12,30.6z"/>
		<path class="st81" d="M11.9,30.7c0,0-0.9,0.4,0.3,2.7C12.2,33.4,11.1,31.2,11.9,30.7z"/>
		<path class="st82" d="M22.3,74.7c0,0-0.6-0.9-9.3,0C13,74.7,17.9,74.3,22.3,74.7z"/>
		<path class="st82" d="M8.4,74.7c0,0,3.9-0.2,4.6,0C13,74.7,8.6,74.9,8.4,74.7z"/>
		<path class="st82" d="M8.4,74.7c0,0-3,1.1-3.1,4.8C5.2,79.5,5.3,76.4,8.4,74.7z"/>
		<path class="st82" d="M5.2,79.5c0,0-3,0.3-2.7,5.2C2.6,84.7,2.2,80.5,5.2,79.5z"/>
		<path class="st82" d="M2.6,84.6c0,0-1,0.8-1,1.6C1.6,86.2,1.8,85.4,2.6,84.6z"/>
		<path class="st77" d="M88.7,62.9c0,0,2.1,7.6,0.1,13C88.8,76,90.1,70.5,88.7,62.9z"/>
		<path class="st77" d="M33.4,70.3l-11.1,4.5C22.3,74.7,32.1,71.2,33.4,70.3z"/>
		<path class="st77" d="M24.5,85.3c0,0,1,1.3,2.2,1.3s13.4,0,13.4,0s1-0.9,1.3-1.5c0,0-0.9,1.3-1.8,1.3c-0.9,0-12.9-0.1-13.3-0.2
			c-0.4-0.1-1.6-1.1-1.6-1.1L24.5,85.3z"/>
		<path class="st77" d="M41.3,85.1c0,0,2.2,3,8.4,1.1c0.1,0,4.5-1,4.9-1.7c0.4-0.7,0.4-0.7,0.4-0.7s-0.8,2.3-9.1,2.5
			C45.9,86.3,44,86.9,41.3,85.1z"/>
		<path class="st77" d="M91.2,41.7c0,0,0.3,5.2-0.7,6.6s-3.4,4.2-3.4,4.2s2.8-3.7,3.1-4.3C90.5,47.6,91.5,45.2,91.2,41.7z"/>
		<path class="st77" d="M93.6,22.2c0,0,4.3,16-2.8,19.4C90.9,41.7,98.5,40.4,93.6,22.2z"/>
		<path class="st77" d="M43.3,33c0,0-9.1,3.1-9.3,11.8C34,44.8,31.5,38.2,43.3,33z"/>
		<polygon class="st77" points="34,44.8 37.6,46.3 34.2,44.7 		"/>
		<path class="st77" d="M37.6,51.9c0,0-0.3-4.5,0-5.7C37.6,46.3,36.9,48.7,37.6,51.9z"/>
		<path class="st26" d="M25.6,50.3c0,0,0.3,1.1,0.6,1.4s0.7-1,0.7-1L25.6,50.3z"/>
		<path class="st74" d="M34.4,6.8c0,0,12.3,3.3,15.9,6.5c0,0.1,0.6,1,0.6,1C50.7,14.4,49.3,11.3,34.4,6.8z"/>
		<path class="st26" d="M27.4,53.8c0,0,0.7,1.2,1.2,1.9l-0.1-1.5L27.4,53.8z"/>
		<path class="st52" d="M77.9,34.7c0,0-4.2,5.7-5,7.6L77.9,34.7z"/>
		<path class="st52" d="M80.3,24.4c0,0-3.1,6.8-2.4,10.3C77.9,34.7,78.5,28.6,80.3,24.4z"/>
		<polygon class="st52" points="54.7,84.2 60.9,83.4 54.6,84.5 		"/>
		<path class="st83" d="M34.2,44.7c0,0-4.5,1.7,0.7,6.4C34.9,51.2,30.1,47,34.2,44.7z"/>
		<polygon class="st8" points="73.1,42.3 73.7,42.4 76.2,43.8 75.3,44.4 74,42.9 		"/>
		<polygon class="st55" points="75.2,44.5 73.8,43 73.1,42.3 74,42.9 75.3,44.4 		"/>
		<path class="st84" d="M35.8,44.6c0,0,0.7-1.3,2.5-3c0,0-0.3,2.4-0.3,2.4s1.9-2,2.2-2.2c0,0,0,1.5,0,1.5s1.3-1.5,1.9-1.7
			c0,0,2.4-9.1,2.4-9.1S33.1,35.9,34,44.8c0.2,0,1.3-2,1.8-2C35.8,42.8,35.8,44.6,35.8,44.6z"/>
		<path class="st85" d="M44.6,32.6c0,0-4.5,6.5-4.3,10.7C40.3,43.3,39.4,38.4,44.6,32.6z"/>
		<path class="st85" d="M44.6,32.6c0,0-7.9,4.3-6.5,11.5C38.1,44.1,37.6,37.5,44.6,32.6z"/>
		<path class="st85" d="M44.6,32.6c0,0-11,5.2-8.7,12.3C35.9,44.9,34.7,37.6,44.6,32.6z"/>
		<path class="st86" d="M32.9,53.3c0,0-4.2,1.3-4.5,5.2C28.4,58.5,28.6,55.4,32.9,53.3z"/>
		<path class="st86" d="M28.7,57.3c0,0-1.5,4.2,2.6,7.1C31.3,64.4,27,62.1,28.7,57.3z"/>
		<path class="st50" d="M43.5,56.3c0,0,0.8,2.7-0.9,6.8C42.7,63.1,45,60.1,43.5,56.3z"/>
		<path class="st77" d="M42.6,33.2c0,0,3.3-1.3,5.5-1c2.3,0.3,8.5,1.7,8.5,1.7S48.6,31.2,42.6,33.2z"/>
		<path class="st77" d="M48.8,32.5c0,0,6.7,1.2,7.8,1.4c0,0-6-1.6-7.8-1.6C48.8,32.3,48.8,32.5,48.8,32.5z"/>
		<path class="st77" d="M56.6,30.4c0,0-0.3,2.9,0,3.4C56.6,33.8,56.2,34.5,56.6,30.4z"/>
		<path class="st77" d="M56.6,30.4c0,0,4.3-1.6,7.9,3.1C64.5,33.5,61.3,29.2,56.6,30.4z"/>
		<path class="st77" d="M64.5,33.5c0,0,0.4,0.5-2,3.3C62.5,36.8,64.4,34.5,64.5,33.5z"/>
		<path class="st77" d="M62.5,36.8c0,0,1.7-0.2,10.4,5.4C72.9,42.3,64.4,37.5,62.5,36.8z"/>
		<path class="st48" d="M35.8,52.1c0,0-5.5,0.7-7.4,5.7C28.4,57.9,30.5,53,35.8,52.1z"/>
		<path class="st48" d="M28.5,57.6c0,0-1.4,5.2,3.8,7.5C32.3,65.1,28,63.4,28.5,57.6z"/>
		<path class="st48" d="M31.3,54c0,0-2.9,1.8-2.9,4.4C28.5,58.4,28.7,56.1,31.3,54z"/>
		<path class="st48" d="M30.9,64.2c0,0,2,2.4,5.9,2.2C36.8,66.4,33.8,66.4,30.9,64.2z"/>
		<polygon class="st87" points="60.9,83.4 60.4,86 65.3,86.3 		"/>
		<path class="st56" d="M88.9,75.7c0,0,1.1,3.9,0.4,4.1c-0.6,0.2-2.4,2.9-5.2,1.7L88.9,75.7z"/>
		<path class="st88" d="M84.1,81.5l1.7,0.3l-5.3,4.4l-4.6,0l-0.3-0.5c0,0,2.7,0.9,5.6-1C81.2,84.7,84.1,81.5,84.1,81.5z"/>
	</g>
</g>
</svg>
