<?xml version="1.0" encoding="utf-8"?>
<!-- Generator: Adobe Illustrator 22.0.0, SVG Export Plug-In . SVG Version: 6.00 Build 0)  -->
<svg version="1.1" id="Layer_1" xmlns="http://www.w3.org/2000/svg" xmlns:xlink="http://www.w3.org/1999/xlink" x="0px" y="0px"
	 viewBox="0 0 85 85" style="enable-background:new 0 0 85 85;" xml:space="preserve">
<style type="text/css">
	.st0{fill:none;}
	.st1{clip-path:url(#SVGID_2_);}
	.st2{fill:#B27600;}
	.st3{fill:url(#SVGID_3_);}
	.st4{opacity:0.97;fill:#13268C;}
	.st5{fill:#0049B2;}
	.st6{opacity:0.7;}
	.st7{fill:#13268C;}
	.st8{fill:#E6E7E8;}
	.st9{opacity:0.95;fill:#2F3130;}
	.st10{fill:#F2F2F2;}
	.st11{opacity:0.96;fill:#F2F2F2;}
	.st12{opacity:0.69;fill:#0A3066;}
	.st13{fill:#BF2713;}
	.st14{opacity:0.44;}
	.st15{opacity:0.4;fill:#13268C;}
	.st16{opacity:0.14;fill:#0A3066;}
	.st17{opacity:0.86;fill:#BF2713;}
	.st18{opacity:0.6;fill:#1A1A1A;}
	.st19{opacity:0.39;fill:#0A3066;}
	.st20{opacity:0.26;fill:#0A3066;}
	.st21{opacity:0.67;}
	.st22{fill:#0A3066;}
	.st23{fill:#DFBA7D;}
	.st24{opacity:0.62;fill:#FFFFFF;}
	.st25{fill:#FFFFFF;}
	.st26{opacity:0.12;fill:#0A3066;}
	.st27{fill:#CB914F;}
	.st28{fill:#AFB0B1;}
	.st29{fill:#1C7931;}
	.st30{opacity:0.58;}
	.st31{opacity:0.56;fill:#13268C;}
	.st32{opacity:9.000000e-02;}
	.st33{opacity:0.67;fill:#0A3066;}
	.st34{opacity:0.15;fill:#0A3066;}
	.st35{opacity:0.96;}
	.st36{opacity:0.44;fill:#13268C;}
	.st37{opacity:0.49;fill:#CB724F;}
	.st38{opacity:0.39;fill:#13268C;}
	.st39{fill:#F3F4F5;}
	.st40{opacity:8.000000e-02;fill:url(#SVGID_4_);}
	.st41{opacity:8.000000e-02;fill:url(#SVGID_5_);}
	.st42{opacity:0.41;fill:#ABACAE;}
	.st43{opacity:4.000000e-02;fill:url(#SVGID_6_);}
	.st44{opacity:4.000000e-02;fill:url(#SVGID_7_);}
	.st45{opacity:4.000000e-02;fill:url(#SVGID_8_);}
	.st46{opacity:4.000000e-02;fill:url(#SVGID_9_);}
	.st47{fill:none;stroke:#000000;stroke-miterlimit:10;}
	.st48{fill:#7C7C7C;}
	.st49{opacity:0.1;}
	.st50{opacity:5.000000e-02;}
	.st51{opacity:2.000000e-02;}
	.st52{fill:#E7E8E9;}
	.st53{fill:#CBCCCE;}
	.st54{opacity:0.1;fill:#E9EAEB;}
	.st55{opacity:7.000000e-02;}
	.st56{opacity:8.000000e-02;}
	.st57{opacity:0.3;fill:#EDEEEF;}
	.st58{fill:#717273;}
	.st59{fill:url(#SVGID_10_);}
	.st60{fill:url(#SVGID_11_);}
	.st61{fill:url(#SVGID_12_);}
	.st62{opacity:0.29;fill:url(#SVGID_13_);}
	.st63{fill:url(#SVGID_14_);}
	.st64{fill:url(#SVGID_15_);}
	.st65{fill:#7F7F7F;}
	.st66{fill:url(#SVGID_16_);}
	.st67{opacity:0.1;fill:#F3F4F5;}
	.st68{fill:url(#SVGID_17_);}
	.st69{opacity:7.000000e-02;fill:#BABBBD;}
	.st70{opacity:0.23;fill:#BABBBD;}
	.st71{opacity:0.11;fill:#BABBBD;}
	.st72{opacity:0.62;fill:url(#SVGID_18_);}
	.st73{fill:#838383;}
	.st74{fill:#CD0C0D;}
	.st75{opacity:0.66;fill:#7F7F7F;}
	.st76{fill:#0E3A16;}
	.st77{opacity:0.24;fill:#0A3066;}
	.st78{opacity:0.1;fill:#767779;}
	.st79{opacity:0.91;fill:#CB914F;}
	.st80{fill:#AC1717;}
	.st81{opacity:0.46;fill:#B27600;}
	.st82{opacity:0.66;fill:#B27600;}
	.st83{opacity:0.8;fill:#B27600;}
	.st84{opacity:0.7;fill:#13268C;}
	.st85{opacity:0.94;fill:#0A3066;}
	.st86{opacity:0.31;fill:#0A3066;}
</style>
<rect class="st0" width="85" height="85"/>
<g>
	<defs>
		<rect id="SVGID_1_" width="85" height="85"/>
	</defs>
	<clipPath id="SVGID_2_">
		<use xlink:href="#SVGID_1_"  style="overflow:visible;"/>
	</clipPath>
	<g class="st1">
		<rect x="-69.9" y="-6.1" class="st2" width="192.3" height="135.3"/>
		<path d="M-51.3,14"/>
		<g>
			<path class="st2" d="M65.3,64.7c0,0,2.8,4.1,3.2,6.5c0,0,2.5-0.4,3.1,0.3l0.9-1.3l-7-5.6L65.3,64.7"/>
			<linearGradient id="SVGID_3_" gradientUnits="userSpaceOnUse" x1="4.2783" y1="75.3616" x2="4.2783" y2="75.3616">
				<stop  offset="0" style="stop-color:#666666"/>
				<stop  offset="1" style="stop-color:#000000"/>
			</linearGradient>
			<path class="st3" d="M4.3,75.4"/>
			<path class="st4" d="M50.1,51.1c0,0,6,0.5,5.3-2.6l17.9,21.7L64.8,64c0,0-6-7.7-17.5-6.9C47.4,57.1,51.9,52.2,50.1,51.1z"/>
			<path class="st5" d="M23.3,15.3c0,0,10.4-12.4,21.6-11.6c0,0,18.7,1.5,23.7,10.2c0,0.3-8.3,2.2-8.3,2.2s30.8,4.6,32.3,43.4
				c0,0-16.3-15.3-22.5-14.8c0.2,0.2,16.2,11.6,16,28.2c0.2-0.2-7,0-7,0s-2.4-3.9-6.6-2.7c0.2,0.2-4.6-3.8-7-5.6
				c0,0-9.7-11.9-18.9-7.1c-0.3,0.7,4.8-4.3,3.4-6.3c-1.4-2-2.4-2.2-2.4-2.2s-4.3,1.5-3.2,0.1c1.2-1.4,1.8-2.8,2.5-3.7
				c3.9-5,1.8-16.6-2.6-14.4c-0.9-0.5-6.9,3.2-9.3,6.3c-0.2,0.4-0.7,1-0.7,1s-2.2,4.9-3,7.9c-0.6,2.4-1.4,4.2-3.2,3.7
				c-1.4,0.2-3.7-2.2-4.9-4.2c-2.1-3.5-12-13-11.8-13.8L23.3,15.3z"/>
			<path class="st5" d="M26.5,49.4c0,0,2.8,0.8,3.4,0.2c0.6-0.7,1.3-1.1,1.3-3.6c0.1-0.8,1.4-6.9,5-10c0,0,3.7-4.4,7.9-5.1
				c0,0,3,0.4,4.6,4.1c0,0,1.4,2.2,0,6.1c0,0-2.3,6.7-4.2,7.9l3.2-0.1c0,0,3.9-5.9,4-9.9c0.1-4,0.9-10.7-4.6-13.2
				c-0.7,0-6-0.3-9.4,3.7c-3.4,4.1-9.4,11.1-8.8,13.7c0,0-2.2,4.8-4.6,3.2C24.2,46.6,25.6,49.2,26.5,49.4z"/>
			<g class="st6">
				<path class="st7" d="M33.6,39.1c0,0,6.2-9.4,10.8-9.4c0,0,4.3-0.9,5.5,4.7c0,0,1.3,3.3,0,6.7l-3.7,5.5L33.6,39.1z"/>
			</g>
			<g>
				<path class="st5" d="M24.7,15.8l0.3-0.4c0.4-1,1-1.9,1.6-2.8C25.9,13.6,25.2,14.7,24.7,15.8z"/>
				<path class="st5" d="M42.4,76.6c-1.1-1.9-4.7-3.7-5.8-4.2s-2.7-10.5-2.7-10.5C18.9,58.3,21,53.3,21,53.3
					c-5.3-8.2-4.5-14.2-4.3-15c0.3,0.3,0.5,0.6,0.6,0.7c1.1,1.3,7.3,11.9,7.3,11.9s2.4,0.7,2.3-1.5c0-0.4-0.4-1.7-0.9-3.5
					c0.3,0.1,0.6,0.1,0.9,0.1c0,0-1.5-3.6-2.7-8.7c-1.2-6.9-1.7-15.5,1.3-22l-0.3,0.4c0.5-1.1,1.1-2.2,1.9-3.2
					c-0.6,0.9-1.1,1.8-1.6,2.8l4.4-5.7c2.1-1.8,3.3-2.5,3.4-2.5c-1.1,0.6-2.2,1.3-3.1,2.1l0,0c0,0-0.1,0-0.1,0.1c0,0,0,0,0,0
					c-0.8,0.6-1.6,1.4-2.2,2.1C24,15,12.3,32.4,12.3,32.4L18.9,53c0,0,2,4,3.2,5.8c1.2,1.8,17.4,18.5,17.4,18.5S42.5,76.9,42.4,76.6
					z"/>
			</g>
			<path class="st8" d="M29.7,90.9c0,0-0.9,4.5,6.9,8.7c0,0,4.3,1.4,7.6-1c3.3-2.5,5.3-5.6,5.3-5.6s-1.4-9-3.4-9s-2.6,0.6-2.6,0.6
				s-2.2-3.1-4-2.7c-1.8,0.3-6.9,3.5-7.4,4C31.8,86.3,29.7,90.9,29.7,90.9z"/>
			<path class="st9" d="M41.3,82.8c0,0,3,2.2-0.4,7.4c0,0-2.5,3.2-6.4,3.8c0,0-4.7-1-3.5-3.7C32.1,87.6,38,81.4,41.3,82.8z"/>
			<path class="st10" d="M29.9,49.6c1.3-1.4,1.9-5.5,2.1-6.2c1.6-4.1,3.7-9.4,12.2-12.5c0.6-0.5,4.3,0.1,4.6,4.1
				c0.2,3.1,0.8,7.4-4.6,14.6c0.2-0.2-7.3,3.9-11.4,2c0,0-5.2-0.7-5.8,0c0,0-1.7-1.3-1.7-1.3l0.6-0.1l0.6-0.9
				C26.5,49.4,28.1,50.4,29.9,49.6z"/>
			<path class="st11" d="M17.7,77.3c-2.2-6.9-5.7-7.7-5.7-7.7c-0.4-0.2-0.9-0.2-1.4,0.2c-0.5,0.5-3,2.6-3,2.6s-2.3-0.1-2.8,0.5
				c-0.5,0.5-0.6,2.4-0.6,2.4s-2.2,0.4-3.1,0.4c-0.5,0-1,0.1-1.5,0.3v0c0,0-1.8,9.1-2.6,13.6c0.4-0.6,0.9-1,1.5-1.7
				c1.2-1.2,4.1-1.1,4.1-1.1c1.9,0,5.4-2.2,5.4-2.2c2-1.3,1.6-1.6,1.6-1.6l0.4,0.3c0.7,0.7,1.8,0.3,2.2,0.3s1.3-1,1.3-1
				c0-0.6,0.7-1.5,0.9-1.7c0.2-0.2,2.4,0.5,3.1,0.5c0.7,0,0.7-0.5,0.7-0.5C18.9,80,17.7,77.3,17.7,77.3z"/>
			<path class="st12" d="M38.4,16.1c0.3-3.3,6.5-10.7,6.5-10.7c1.6,0.7,3.2,12.2,3.2,12.2l3.5,0.5c-0.9-0.9-2.3-5.9-2.5-6.2
				c-2.2-8.3-4.4-8-4.3-8.2c-2.1-0.1-10.5,12.5-10.5,12.5L38.4,16.1z"/>
			<path class="st5" d="M13.9,29c0,0-5.7-11.5-5.7-15c0.1-0.2,3.1-0.9,10.5,2.6c0,0.1,2.9,1,2.9,1l-3.6,5.3c0,0-7.1-7.2-8.4-7.3
				c-0.4,0.2-0.5,1.6,4.9,11.5C14.7,26.9,13.9,29,13.9,29z"/>
			<path class="st13" d="M96.8,118.5c0,0-3.4-7-8-8.2h-5.8c0,0-0.6,0.4-0.7,0.6c2.9,1.7,4.8,5,4.8,8.8c0,3.9-2.1,7.3-5.1,9
				c0,0.2-0.1,0.3-0.1,0.3v0h16.1l0-0.2C97.9,129,99.9,124.4,96.8,118.5z"/>
			<g class="st14">
				<path class="st7" d="M35.2,61.9l-0.7,3.4c0,0,8.8-5,10.5-3.4c0,0,4.1-3.1,2.4-4.8C46.7,57.4,39.6,62.1,35.2,61.9z"/>
			</g>
			<path class="st8" d="M54.9,85.2c0,0-0.3-1.1,3-0.6c1.1,0,5.2,3.8,5.2,7s-0.5,6.6-1.1,7.9c-0.7,1.4-9.9,10.2-9.9,10.2l-4,3.7
				l-2.3,2.6l-3.3,3.9c0,0-2.4,4.5-5.8,1.4L54.9,85.2z"/>
			<polygon class="st5" points="46.2,83.2 47.6,86.8 51.3,86.2 49.4,82.4 			"/>
			<path class="st15" d="M60.3,16.1c0,0-21.4-4.3-25.8,0.1C34.5,16.2,41.1,8.3,60.3,16.1z"/>
			<path class="st16" d="M34.5,16.2c0,0,2.3,1.8,4.5,2.6s8.3,2.6,12.7-1L34.5,16.2z"/>
			<path class="st8" d="M78.2,112c0,0,2.7-0.9,3.6-0.9c0.9,0,3.3,0.9,4.4,3.8c1.1,2.9,0.7,7.2,0.7,7.2s-3,7.2-4.8,7.2
				c-1.8,0-10.5,0-10.5,0l-1.1-1.2h-0.9c0,0-4.1-2.8-3.3-6c0.8-3.2,2.8-8.1,7.1-9.9c0,0-0.3-0.4,1-0.3C75.8,111.8,78.2,112,78.2,112
				z"/>
			<path class="st17" d="M54.9,85.2c0,0,4.8,11-0.8,18.7l-4.6,4.3c0,0-10.2-4.3-12.2-8.2c0,0,8.3,1.5,12-7.7L54.9,85.2z"/>
			<path class="st9" d="M69.5,115.2c0,0,3.7-3.4,5-3.4s3.7,0.1,3.7,1.7s0.3,2.5-0.6,4.2s-5.4,5.9-5.4,5.9s-4.6,1.8-5.7,0
				C66.5,123.5,65.4,120,69.5,115.2z"/>
			<path class="st18" d="M40,84.2c0,0,2.4,1.8-0.4,5.9c0,0-2,2.6-5.1,3.1c0,0-3.7-0.8-2.8-3C32.7,88,37.3,83.2,40,84.2z"/>
			<path class="st18" d="M75.9,113.4c0,0,2.7,2-0.4,6.7c0,0-2.2,2.9-5.7,3.5c0,0-4.2-0.9-3.1-3.4C67.8,117.7,73,112.2,75.9,113.4z"
				/>
			<path class="st8" d="M34.4,98.3c0,0-2.1,2.6-1.3,5.6c0.2,0.2,1.4,3.4,4.3,5c0,0,4.2,2.7,7.7,3.7l4.6-4.4c0,0-11-4.6-12.2-8.2
				L34.4,98.3z"/>
			<path class="st13" d="M38.5,122c0,0,4.5-6.7,6.5-9.4c0,0-12.1-3.7-12.1-11.1c0,0-2.9,6-1.8,11.1C31.1,112.6,32,120.6,38.5,122z"
				/>
			<g>
				<path class="st0" d="M36.1,64.8l11.2,15.1C44.8,65,39,64.2,36.1,64.8z"/>
				<path class="st5" d="M35.2,61.9C35.2,61.9,35.3,61.9,35.2,61.9C35.3,61.9,35.2,61.9,35.2,61.9z"/>
				<path class="st5" d="M76.2,117.4c0,0-12.7-6.1-14.3-8.4c-1.6-2.3-4.2-5.8-4.9-11.6c0,0-1.7-9.3-2.4-11.6c0,0,2.3-8.4,2.2-9.5
					c0.2-1.6,0.1-5.2,0.1-5.8c0,0-0.5-11.7-9.7-13.4c0,0-10.2,5.4-12.1,4.8c0.1,0.1-0.1,0.7-0.2,1.4l-9.7-13l-9.1-12.2l-4.8-6.4
					c0,0,0.9,4.2,2.8,9.3c1.9,5.1,3.5,8.8,4.4,12.8c0,0,2.3,5.4,9,12.1L39,77.4H28.2h-3.7c-1.8,0.6-3.1,2.4-3.1,2.4
					c-0.9,3.7,0.7,5.5,0.7,5.5c0.8,1.5,8.6,6.3,10.5,7.3c1.9,1,3.4,0,3.4,0s2.8-2.3,3.1-2.6c0.3-0.3-0.6-1.6-3.1-3.2
					c-2.5-1.6-7.5-3.3-7.7-3.6c-0.3-0.3,0-0.5,0-0.5l5.1-0.3c3-0.6,10,0.3,12.5,0.6c0.1,0.1,0.3,0.2,0.4,0.3c0.6,0,1-0.1,1.2-0.3
					c0,1.3,0,2.5,0,2.8c-0.1,0-0.1,0-0.1,0s1.7,5,2.3,7.2s1.8,11.7,3.6,16.1c0,0,3.2,4.9,7.5,8.3l7.8,5.4H72
					C72,122.7,78.2,118.3,76.2,117.4z M36.1,64.8c2.9-0.6,8.7,0.2,11.2,15.1L36.1,64.8z"/>
			</g>
			<path class="st19" d="M20.1,56.3c4.4,7,11.6,13.6,19.4,21.3l4.4,0.9c0,0-3.2-5.8-5.8-5.6c0,0-4.7-6.7-2.7-11L20.1,56.3z"/>
			<path class="st20" d="M31.7,8.2c0,0-6.7,4.3-10,9.4S11.5,31.8,11.5,31.8s1.4,5.3,2.1,7.3c0.7,2,2.9,7.7,2.9,7.7s2.2,5.9,2.3,7.1
				c0,0,1.5,2.8,2,3.4c0.5,0.7,4.6,6.3,7.4,8.9l11.3,11.1l4.4,1.2c0,0-4.5-5.1-5.8-5.6c0,0-2.4-2.8-3-6.5c0.3,0.5-1.9-4.5-1.9-4.5
				s-4.3,0.1-6.8-1.6s-5.7-4.1-6-5.1s-0.3-1.3,0.3-1.9c0,0-5-8.8-4.7-14.2C14.6,38.2,25.9,11.7,31.7,8.2z"/>
			<path class="st8" d="M88.7,110.3h4.8c0,0,4.7,1.1,5.9,2.3s2.7,4.2,2.7,6.2s-0.9,10.3-0.9,10.3h-3.3
				C97.9,129.2,101,116.2,88.7,110.3z"/>
			<g class="st21">
				<path class="st22" d="M15.8,37.5c0,0,8.1,8,10.7,11.7c0,0-0.5,1.6-1.1,0.8C24.8,49.3,15.8,37.5,15.8,37.5z"/>
			</g>
			<path class="st23" d="M33.5,61.9c0,0-10.6,9.5-17.8,10.5l2,4.9c0,0,8.6-4,13-8.4l3.7-3.2l0.8-3.8L33.5,61.9z"/>
			<path class="st24" d="M-10.8,93.9c0.1,0.5,0.3,0.9,0.3,0.9c0.3,0.4,0.7,0.7,1.1,0.8C-10,95.1-10.5,94.6-10.8,93.9z"/>
			<path class="st24" d="M-10.5,91.4c1-1.4,4-4.7,4-5.2s4.2-9.6,5.4-9.9c0,0,0.3-0.1,0.8-0.3c0,0-2.6,0.7-4.4,1.2
				c-1.8,0.6-3.8,1.9-4.9,2.5c-1.1,0.5-5.6,3.8-8.4,5.8s-4.1,4.6-4.1,4.6c-0.5,2.2,2,3,2.9,3c0.9,0,3.2-1.5,3.2-1.5
				c-1.5,2.3-1,4.5-1,5.5c0,0.9,2.1,1.2,3.2,0.7c1-0.4,1.9-2.6,1.9-2.6s0.6-1.7,0.8-2.7c0,0.5,0.1,0.9,0.2,1.3
				C-11,93.2-11.1,92.2-10.5,91.4z"/>
			<path class="st10" d="M-5.6,95.2c0,4.1,2.7,4,2.7,4c0.2,0,1.5-1.5,1.5-1.8c0-0.3-0.2-2-0.2-2.6s-1.6-2.2-1.6-2.9
				c0-0.2,0.2-1.1,0.4-2.4c-0.5,0.8-1,1.6-1.4,3.2C-4.3,92.9-4.6,94.8-5.6,95.2z"/>
			<path class="st24" d="M-0.3,76c-0.5,0.1-0.8,0.3-0.8,0.3c-1.2,0.2-5.4,9.4-5.4,9.9s-2.9,3.8-4,5.2c-0.6,0.8-0.5,1.8-0.3,2.5
				c0.3,0.7,0.8,1.3,1.4,1.7c1.4,0.6,3,0,3.8-0.4c1-0.5,1.4-2.3,1.4-2.3c0.5-1.6,0.9-2.5,1.4-3.2C-2.1,85.2-0.3,76-0.3,76L-0.3,76z"
				/>
			<path class="st12" d="M23.3,40.7c-2.8-9.3-0.5-17.8-0.5-17.8c0.5-5.8,8.8-14.7,8.8-14.7c-9,5.3-18.3,27.2-18.3,27.1
				c0,0,0.2,3.7,2,8.6c0,0,2.7,6.5,3.3,10l2,3.4l3.3-6c0,0-0.7-1.2-1.7-3c0.7,0.8,1.6,0.9,2.1,1.4c1.7,1.5,1.7-0.1,1.7-0.1
				s-0.2-0.6-0.4-1.4C24.9,45.7,23.5,40.9,23.3,40.7z"/>
			<path class="st11" d="M-1.1,86.2v3.1c0,0,0.5,1.5,1.2,2.2c0.7,0.7,1.4,1.1,1.7,1.1s1.7,0.6,1.7,0.6s1.1,0.3,1.4-0.4
				s0.7-2.1,0.3-2.4C5,90,4.8,89.4,4.5,89.4c0,0-1.6,0-2-0.4c-0.4-0.4-0.1-1.7,0.1-2c0.2-0.3,1-0.4,1-0.4L-1.1,86.2z"/>
			<path class="st10" d="M-16,91.6c0,0-1.7,4.7-1,5.5c0.8,0.8,2.5,1.2,2.8,0.9c0.3-0.2,1.9-1.8,2.3-2.8s1.4-3.9,1.4-3.9l4-5.2
				l-4.7,1.5C-11.2,87.6-14.9,89.5-16,91.6z"/>
			<path class="st25" d="M20.6,53.3c-1.4-2.5-4.8-9.3-4.7-14.2c0.2,0.2,5.7,6.8,5.7,9.2c0-0.1-1,2.6,0,3.4s1.8,1.4,1.8,1.4
				S21,53.9,20.6,53.3z"/>
			<g>
				<polygon class="st10" points="-0.3,76 -0.3,76 -0.3,76 				"/>
				<path class="st10" d="M-11.2,80.7l-7.3,5.2c0,0-3.5,3.5-3.5,4.2c-0.1,0.7,0.4,2.5,2.1,2.9c0,0,1.4,0.1,2.9-0.9
					c1.4-0.9,4.5-4,5.9-4.5c1.4-0.5,4.7-1.5,4.7-1.5c0,0.5-2.9,3.8-4,5.2c-0.6,0.8-0.5,1.8-0.3,2.5c0.3,0.7,0.8,1.3,1.4,1.7
					c1.4,0.6,3,0,3.8-0.4c1-0.5,1.4-2.3,1.4-2.3c0.5-1.6,0.9-2.5,1.4-3.2C-2.1,85.2-0.3,76-0.3,76c-0.5,0.1-0.8,0.3-0.8,0.3
					S-8.2,77.7-11.2,80.7z"/>
			</g>
			<path class="st26" d="M35.9,16.9c0,0,1.8,1.8,3.5,2.6c1.7,0.8,6.4,2.6,9.8-1L35.9,16.9z"/>
			<path class="st10" d="M76.5,92.4c0,0-2.9-0.7-2.9-4.8c0-4,0-4.5,0-4.5s-1.7-2.7-1.3-5.8c0,0,0.7-3.3,2.4-3.7c0,0,2.3-0.7,4.2-0.7
				c0,0,6.7-0.2,8.5,0.4c0,0,2.6,0.2,3.5,0.7c0,0,1.5,0.2,1.8,0.2s1.5-0.7,2.9-0.7s3.5,0.8,3.5,0.8l3.6,1.5l1.2,0.3
				c0,0,6.2,4.1,7.8,6.9c0,0,1.2,1.8,1.2,3.5c0,0,0.1,1.3-0.7,2.2l-1.1,0.7c0,0,2,2.2,2.6,6.9c0,0-1.8,2.1-2.7,2.1
				c0,0-2.8-0.5-4.1-3.3c0,0-1.5-3.5-2.7-4.1c-1.1-0.6-1.1-0.3-1.1-0.3s1.1,8.3-2.1,12.1c0.2-0.2-3.1,0.2-3.1-1.6s0.6-7.2,0.2-7.5
				s-1-3.6-4.9-4.3c0,0-10.8-2.2-11.9-2.9c0,0,0.2,0.7-0.3,1.9C80.5,89.4,78.3,92.4,76.5,92.4z"/>
			<path class="st27" d="M38.2,17.1c0,0,0.1-2.5,2-5.3c1.9-2.8,4.7-6.5,4.7-6.5s0.6,0,1.4,3.1c0.8,3.1,1.8,7.9,1.8,8.6
				c0,0.7,0.1,2.2-0.5,2.2C47,19.3,43.2,17.6,38.2,17.1z"/>
			<path class="st28" d="M71.7,72.2c0,0-2.6,7.8-1.3,10.5s3.7,5.8,3.7,5.8L74,82.6c0,0-2.4-1.1-1.8-4.5c0,0,0.8-4.1,3.4-4.8
				C75.7,73.4,75.8,67.1,71.7,72.2z"/>
			<path class="st29" d="M35.2,49.7c0,0,1-0.3,1-3.9c0-3.6-1.1-7.4-1.8-7.5c0,0-2.6,4.5-2.8,7c0,0,1.4,2.5,2.3,4
				C33.9,49.2,34.7,50.2,35.2,49.7z"/>
			<path d="M34.4,46.5c0,0,0.6-0.2,0.6-2.5s-0.6-4.7-1-4.8c0,0-1.5,2.9-1.7,4.4c0,0,0.8,1.6,1.4,2.6C33.6,46.2,34.1,46.9,34.4,46.5z
				"/>
			<path class="st25" d="M33.3,45.5c0,0-1.2-1.3-1-2.4c0.2-1.2,0.3-1.6,0.3-1.6s0.6,1.3,0.7,1.8C33.6,44.2,33.6,45.2,33.3,45.5z"/>
			<path class="st29" d="M19.2,43.2c0,0-0.1,2.4,0.8,4.5s1,2,1,2s1.6-0.7,1.4-0.9C22.2,48.5,19.5,43.5,19.2,43.2z"/>
			<path d="M19.6,44.8c0,0,0.4,2.3,1.5,3.4c0.1,0,0.5,0.2,0.5,0c0-0.2-1.5-3.3-1.5-3.3S19.9,44.8,19.6,44.8z"/>
			<path class="st25" d="M20,46.8h0.3c0-0.6,0-1.6-0.5-1.9C19.9,45,19.6,45.1,20,46.8z"/>
			<path class="st5" d="M64.7,90c0,0-0.7-2.7-2.8-5.4c0,0-4.4-6.8-5.4-7.8c-1-1-1.6,7.3-1.6,7.3S62.9,90,64.7,90z"/>
			<g class="st30">
				<path class="st7" d="M61.9,55.8c0,0-6.4-9-7.1-7.5c-1.9,3.7-4.7,2.9-4.7,2.9c2.4,2.2-2.7,6-2.7,6c5-2.4,11.3,1.5,14.7,4.3
					l3.5,3.2c0.5,0.9,4.5,3.2,7,5.6C74.1,69.6,68.5,65.7,61.9,55.8z"/>
			</g>
			<path class="st5" d="M47.4,57.1c0.2-0.1,15.1-3.6,21.1,14.1c0.2,0.2-1.5,0.9-1.5,0.9s-6.3-3.9-10.5-3.4
				C55.5,69.2,43.9,58.8,47.4,57.1z"/>
			<path class="st31" d="M50.1,51.1c0,0,3.8,0.6,5-2.9c3.5,1.5,3.8,10.5-1.2,8.9c-1.6-0.5-5.1-0.8-6.5,0
				C47.4,57.1,51.8,53,50.1,51.1z"/>
			<path class="st10" d="M67,72c0,0-2.2,2.7-2.2,7.5c0,4.8,1.3,7.8,2.2,8.7s3.6,1.9,4.5,1c0.9-0.9,2.2-0.5,2.2-0.5v-5.6
				c0,0-2.9-4-0.3-8.4c0,0,0.6-1.8,5.9-1.8c0,0-2.8-4.3-6.6-2.7l-0.9,1.3C71.6,71.5,70.5,70.2,67,72z"/>
			<g class="st32">
				
					<image style="overflow:visible;" width="88" height="102" xlink:href="31726061.png"  transform="matrix(0.588 0 0 0.588 43.5756 50.9468)">
				</image>
			</g>
			<path class="st22" d="M31.7,8.2c0,0-9,5.3-13.6,14.7l-6.6,8.9l3.1,10l0.3-7.4C14.9,34.4,26.3,10.8,31.7,8.2z"/>
			<path class="st7" d="M23.3,40.2c0,0,1.7,8.6,3.8,9.4c0.1,0,2.5,0,2.5,0l0.7-0.8c0,0-1.6,0.6-2.4-0.3
				C27.1,47.7,23.8,42.9,23.3,40.2z"/>
			<path class="st23" d="M27,51.7c0,0,3.7-1.1,6.6,0.5C34,52,40,52.3,44.5,49.1c0,0,1.4-0.1,3.2-0.1c0,0,6.6,2.6-1,8.5
				c0,0-10.5,7.7-20.4,2.9c-0.1,0-8.4-5.1-5.7-7c0,0.1,2.3-0.1,2.8-0.3c0,0,5.1-0.3,4.6-0.5S27,51.7,27,51.7z"/>
			<path class="st33" d="M31.3,39.5c0,0,1.6-17,16.8-13.9c0,0-9-0.3-13.5,7.6"/>
			<path class="st34" d="M55,62.2c0,0,1.7,4.9,1.5,6.2c0.5,0.2,5.8,1.1,7.9,2.3C66.6,71.8,60.1,63.5,55,62.2z"/>
			<path class="st15" d="M64.2,39.4c0,0,14-6.4,27.9,18.9c0,0-15.6-14.2-21.8-13.9C70.2,44.4,64.2,39.4,64.2,39.4z"/>
			<path class="st35" d="M27.2,53.7c0,0-6-0.5-6.2-3.7c0,0,0-1.8,0.6-1.8c0,0,0.8-0.1,0.9,0s4.6,3.5,5.2,4.1c0,0,0.1,0.7,0,0.9
				C27.6,53.4,27.2,53.7,27.2,53.7z"/>
			<path d="M65.6,64.6"/>
			<path class="st26" d="M47.4,57.1c0,0,7.8,9.4,4.1,19.2c-0.9,1.8-3.9,3.4-3.9,3.4S44,62.2,34.5,65.3c-0.1,0.1,0.7-3.4,0.7-3.4
				S44.4,60.4,47.4,57.1z"/>
			<path class="st19" d="M50.4,52.5c0,0,4.8-0.7,4.9-2.4c0.1-1.6,7.3,8.5,7.5,11.5c0,0-6-6.3-15.4-4.6C47.4,57.1,51.4,54,50.4,52.5z
				"/>
			<path class="st36" d="M55.1,48.2c0,0,14.5-4.2,26.2,25.4c-0.4-0.7-2.1-0.7-2.1-0.7l-6.6-2.7l-7-5.6c0,0-6.6-10.9-18.2-7.5
				c0,0,5.1-3.7,2.7-6C50.1,51.1,54,50.4,55.1,48.2z"/>
			<path class="st37" d="M46.3,8.5c0,0-0.9,8.1-0.3,8.7c0.6,0.6,1.6,2,1.6,2S49.5,19,46.3,8.5z"/>
			<path class="st34" d="M55.4,81.8l9.3,8.1c0,0-3.2-0.8-9.8-5.9L55.4,81.8z"/>
			<path class="st23" d="M35.2,65.3c0.3-1.2,7.4-5.2,12.8,8.8c0.2,0.3,1.5,4.9,0,5.6c-0.7,0.5-2.4,1-4.3-1.2
				c-0.1,0.1-2.2-2.7-5.8-5.6C37.8,72.8,34.5,68.7,35.2,65.3z"/>
			<path class="st34" d="M36.2,92.3C36.3,92.3,36.3,92.3,36.2,92.3c0.8-0.5,1.4-1.3,2.2-1.8c0.4-0.3,0.5-0.7,0.3-1.1
				c-0.7-1.8-6.3-4.5-8.7-5.3C29.5,83.9,35,92.7,36.2,92.3z"/>
			<path class="st23" d="M44.5,64.7c0,0-0.1-0.5-0.1-1.1c0-0.8,0.1-1.4,0.6-1.7c0.5-0.3,1.2-0.2,5,2.8c1.6,1.2,3.5,2.8,5.8,4.7
				c2.8,2.4,6,4,9.5,5.1c0,0,0.2,0,0.3,0.1c-0.1,0.4-0.3,0.7-0.6,2.3c-0.2,1-0.2,2.2-0.2,2.6C64.7,80.2,57,77.7,44.5,64.7z"/>
			<g>
				<path class="st34" d="M52.2,73.6c0-0.4,0-0.8-0.2-1.2C52.1,72.4,52.2,72.9,52.2,73.6z"/>
				<path class="st34" d="M52.2,73.6c0,3.7-4.6,6.3-4.5,6.1c-1.2,1.4-4.3-1.2-4.3-1.2l-2.7,3.8c0,0,4.7,0.5,5.4,0.6
					c0.4,0,1.2,2.1,1.8,3.7l-0.3,0.2l1.9,6.2l1.1,6.3L51,84.5l0,0C52.7,80.4,52.5,75.7,52.2,73.6z"/>
			</g>
			<path class="st34" d="M53.1,109.1c0,0,16.4,13.7,18.8,12c0.1,0.2,2.1,0.2,2.1,0.2l-1.9,2.3l-3.7-0.6
				C68.5,122.9,58.4,116.8,53.1,109.1z"/>
			<polygon class="st38" points="67.5,12.3 60.3,16.1 68.6,13.9 			"/>
			<polygon class="st7" points="9.7,15.5 18.5,21.9 18.1,22.9 			"/>
			<path class="st39" d="M102.5,89.7c0,0,1.2,0.9,1.2,1.8s0,5.6,0,5.6s-0.6,4.4-1.9,4.8c0,0,1.6-6,0.6-9.1L102.5,89.7z"/>
			<path class="st34" d="M21,82.2c0,0,0-2.1,0.3-2.5s1.5-1.8,2.3-2s0.8-0.3,1.2-0.3s11.2,0,11.2,0S22.2,77.9,21,82.2z"/>
			<path class="st34" d="M25.4,88.1c0,0,7.9-0.4,8.5,4.9C33.8,93,27.4,89.6,25.4,88.1z"/>
			<path class="st34" d="M55.4,101.6c0,0,3.9,9.3,8.7,11.8C64.6,113.8,58.8,107.6,55.4,101.6z"/>
			<linearGradient id="SVGID_4_" gradientUnits="userSpaceOnUse" x1="13.2671" y1="80.1086" x2="16.7965" y2="80.1086">
				<stop  offset="0" style="stop-color:#666666"/>
				<stop  offset="0.5123" style="stop-color:#000000"/>
				<stop  offset="1" style="stop-color:#FFFFFF"/>
			</linearGradient>
			<path class="st40" d="M13.3,78.9c0,0,3.1,1.3,3.5,2.3C16.9,81.3,12.9,81,13.3,78.9z"/>
			<linearGradient id="SVGID_5_" gradientUnits="userSpaceOnUse" x1="7.1822" y1="73.1122" x2="9.3087" y2="73.1122">
				<stop  offset="0" style="stop-color:#666666"/>
				<stop  offset="0.5123" style="stop-color:#000000"/>
				<stop  offset="1" style="stop-color:#FFFFFF"/>
			</linearGradient>
			<path class="st41" d="M7.9,72.2c0,0,1,1.4,1.4,1.7c0.4,0.3-2.1-1.1-2.1-1.5c0.1,0,0.5,0,0.5,0L7.9,72.2z"/>
			<path class="st42" d="M4.4,74c0,0-1.4,3.4,5.4,9C9.8,83,4,77.3,4.4,74z"/>
			<linearGradient id="SVGID_6_" gradientUnits="userSpaceOnUse" x1="-1.1648" y1="89.2651" x2="4.8234" y2="89.2651">
				<stop  offset="0" style="stop-color:#666666"/>
				<stop  offset="0.5123" style="stop-color:#000000"/>
				<stop  offset="1" style="stop-color:#FFFFFF"/>
			</linearGradient>
			<path class="st43" d="M4.3,89.4c-1,0.1-1.8-0.4-1.8-0.4l-2.3,1.7c-1.2-1.9,0-3.6,0-3.6s-1.2,0.6-1.2,0.6
				c-0.5,1.9,0.8,3.3,0.8,3.3s0,0,0.1,0l-0.1,0c0.8,1.1,5.1-1.4,5.1-1.4C4.6,89.4,4.3,89.4,4.3,89.4z M0,90.9
				C0,90.9,0.1,90.8,0,90.9L0,90.9z M0.2,90.8L0.2,90.8C0.2,90.8,0.2,90.8,0.2,90.8z"/>
			<linearGradient id="SVGID_7_" gradientUnits="userSpaceOnUse" x1="-8.1689" y1="84.5491" x2="-4.4793" y2="84.5491">
				<stop  offset="0" style="stop-color:#666666"/>
				<stop  offset="0.5123" style="stop-color:#000000"/>
				<stop  offset="1" style="stop-color:#FFFFFF"/>
			</linearGradient>
			<polygon class="st44" points="-8.2,86.6 -4.5,82.5 -6.5,86.1 			"/>
			<linearGradient id="SVGID_8_" gradientUnits="userSpaceOnUse" x1="-17.0496" y1="92.1709" x2="-9.2322" y2="92.1709">
				<stop  offset="0" style="stop-color:#666666"/>
				<stop  offset="0.5123" style="stop-color:#000000"/>
				<stop  offset="1" style="stop-color:#FFFFFF"/>
			</linearGradient>
			<path class="st45" d="M-9.2,87.1c0,0-5.2,2.6-5.5,7c0,0-2.2,3.8-2.3,3c-0.1-1.7-0.2-4.3,1.6-6.4C-15.4,90.7-11.4,86.9-9.2,87.1z"
				/>
			<linearGradient id="SVGID_9_" gradientUnits="userSpaceOnUse" x1="-10.375" y1="91.4791" x2="-4.5113" y2="91.4791">
				<stop  offset="0" style="stop-color:#666666"/>
				<stop  offset="0.5123" style="stop-color:#000000"/>
				<stop  offset="1" style="stop-color:#FFFFFF"/>
			</linearGradient>
			<path class="st46" d="M-4.5,93.6c0,0-4.4,2.2-5.2-1.4c0,0,0.4-1.7,1.2-2.6s1.7-2.2,1.7-2.3s-3.4,3.3-3.4,4.5c0,0-0.7,2.3,1.4,3.9
				C-8.9,95.6-6,96.5-4.5,93.6z"/>
			<path class="st47" d="M106.9,95"/>
			<path class="st48" d="M98.8,97.6"/>
			<path class="st48" d="M106.9,95"/>
			<g class="st49">
				
					<image style="overflow:visible;" width="94" height="86" xlink:href="31726060.png"  transform="matrix(0.588 0 0 0.588 57.1008 51.5348)">
				</image>
			</g>
			<g class="st50">
				
					<image style="overflow:visible;" width="85" height="87" xlink:href="3172607F.png"  transform="matrix(0.588 0 0 0.588 52.9844 62.7078)">
				</image>
			</g>
			<g class="st50">
				
					<image style="overflow:visible;" width="77" height="92" xlink:href="3172607C.png"  transform="matrix(0.588 0 0 0.588 55.9247 51.5348)">
				</image>
			</g>
			<g class="st51">
				
					<image style="overflow:visible;" width="116" height="114" xlink:href="3172607D.png"  transform="matrix(0.588 0 0 0.588 59.453 52.7109)">
				</image>
			</g>
			<g class="st49">
				
					<image style="overflow:visible;" width="78" height="91" xlink:href="3172607E.png"  transform="matrix(0.588 0 0 0.588 76.5064 68.0002)">
				</image>
			</g>
			<g class="st49">
				
					<image style="overflow:visible;" width="80" height="80" xlink:href="31726077.png"  transform="matrix(0.588 0 0 0.588 76.5064 77.409)">
				</image>
			</g>
			<g class="st49">
				<path class="st52" d="M103.9,78.1c0,0,4,4,4,4.7c0,0.7-0.6,2.2,0,2.5c0.6,0.3,5.5,1.5,5.2,0.3s-2-3.4-6.4-7.8l-3.1-1.2
					C103.5,76.7,103.9,77.6,103.9,78.1z"/>
			</g>
			<g class="st49">
				<path class="st53" d="M100.8,89.5c0,0,0.7,5.3-1.3,9.3c0,0,0.6,3.1,2.3,3.1C101.8,101.9,104.3,92.4,100.8,89.5z"/>
			</g>
			<path class="st54" d="M100.8,89.5c0,0,1.3,1.1,1.6,3s0-2.8,0-2.8L100.8,89.5z"/>
			<g class="st55">
				
					<image style="overflow:visible;" width="79" height="91" xlink:href="31726050.png"  transform="matrix(0.588 0 0 0.588 44.7517 49.7707)">
				</image>
			</g>
			<g class="st56">
				
					<image style="overflow:visible;" width="80" height="91" xlink:href="31726051.png"  transform="matrix(0.588 0 0 0.588 45.9278 49.7707)">
				</image>
			</g>
			<path class="st57" d="M75.3,71.4c0,0-2.7,1.5-3.2,3.9s-0.9-2.9,0-3.9s2.6-1.5,4.1-1c1.5,0.6,2.8,2.1,2.8,2.6
				c0,0.5-0.6,0.2-0.6,0.2S76.7,71.4,75.3,71.4z"/>
			<g class="st50">
				<path class="st58" d="M107.8,82.8c0-0.7-1-1.5-1-1.5c0.2,0.3-2.9-3.1-2.9-3.1l-0.4,1.1c-0.3,2.3-2.3,3.3-2.3,3.3
					s0.6,1.4,1.3,2.3c0.7,0.9,2.3,2.3,2.3,2.3l0,0C106.8,88.8,107.8,83.4,107.8,82.8z"/>
			</g>
			<linearGradient id="SVGID_10_" gradientUnits="userSpaceOnUse" x1="98" y1="82.1679" x2="102.3191" y2="82.1679">
				<stop  offset="0" style="stop-color:#838486"/>
				<stop  offset="0.3046" style="stop-color:#7F8082"/>
				<stop  offset="0.6201" style="stop-color:#727375"/>
				<stop  offset="0.9397" style="stop-color:#5E5F61"/>
				<stop  offset="1" style="stop-color:#595A5C"/>
			</linearGradient>
			<path class="st59" d="M98,81.7c0,0,2.9,1.9,4.3,0.2C102.3,81.9,100.9,83.3,98,81.7z"/>
			<linearGradient id="SVGID_11_" gradientUnits="userSpaceOnUse" x1="102.974" y1="77.6336" x2="103.8817" y2="77.6336">
				<stop  offset="0" style="stop-color:#838486"/>
				<stop  offset="0.3046" style="stop-color:#7F8082"/>
				<stop  offset="0.6201" style="stop-color:#727375"/>
				<stop  offset="0.9397" style="stop-color:#5E5F61"/>
				<stop  offset="1" style="stop-color:#595A5C"/>
			</linearGradient>
			<path class="st60" d="M103,75.8c0,0,1.7,1.6,0.4,3.7C103.4,79.5,104.3,77.5,103,75.8z"/>
			<linearGradient id="SVGID_12_" gradientUnits="userSpaceOnUse" x1="102.3191" y1="80.0912" x2="103.7315" y2="80.0912">
				<stop  offset="0" style="stop-color:#838486"/>
				<stop  offset="0.3046" style="stop-color:#7F8082"/>
				<stop  offset="0.6201" style="stop-color:#727375"/>
				<stop  offset="0.9397" style="stop-color:#5E5F61"/>
				<stop  offset="1" style="stop-color:#595A5C"/>
			</linearGradient>
			<path class="st61" d="M102.3,81.9c0,0,0.6-0.3,1.1-2.1s0.3-1.5,0.3-1.5S103.2,81,102.3,81.9z"/>
			<linearGradient id="SVGID_13_" gradientUnits="userSpaceOnUse" x1="103.237" y1="80.9524" x2="112.9192" y2="80.9524">
				<stop  offset="0" style="stop-color:#666666"/>
				<stop  offset="0.1429" style="stop-color:#4D4D4D"/>
				<stop  offset="0.2324" style="stop-color:#717171"/>
				<stop  offset="0.3741" style="stop-color:#A3A3A3"/>
				<stop  offset="0.5077" style="stop-color:#CBCBCB"/>
				<stop  offset="0.6293" style="stop-color:#E7E7E7"/>
				<stop  offset="0.735" style="stop-color:#F9F9F9"/>
				<stop  offset="0.8128" style="stop-color:#FFFFFF"/>
			</linearGradient>
			<path class="st62" d="M103.2,75.9c0,0,8.2,4.4,9.7,10.1C112.9,86,111.1,80.9,103.2,75.9z"/>
			<linearGradient id="SVGID_14_" gradientUnits="userSpaceOnUse" x1="111.0571" y1="92.7139" x2="113.9097" y2="92.7139">
				<stop  offset="0" style="stop-color:#838486"/>
				<stop  offset="0.3046" style="stop-color:#7F8082"/>
				<stop  offset="0.6201" style="stop-color:#727375"/>
				<stop  offset="0.9397" style="stop-color:#5E5F61"/>
				<stop  offset="1" style="stop-color:#595A5C"/>
			</linearGradient>
			<path class="st63" d="M111.1,89.3c0,0,3.8,5.7,2.6,6.9C113.7,96.2,113.8,94,111.1,89.3z"/>
			<linearGradient id="SVGID_15_" gradientUnits="userSpaceOnUse" x1="106.804" y1="96.3562" x2="113.6656" y2="96.3562">
				<stop  offset="0" style="stop-color:#838486"/>
				<stop  offset="0.3046" style="stop-color:#7F8082"/>
				<stop  offset="0.6201" style="stop-color:#727375"/>
				<stop  offset="0.9397" style="stop-color:#5E5F61"/>
				<stop  offset="1" style="stop-color:#595A5C"/>
			</linearGradient>
			<path class="st64" d="M106.8,94.6c0,0,3,6,6.9,1.6C113.7,96.2,110.3,101.5,106.8,94.6z"/>
			<path class="st65" d="M106.8,94.6c0,0-0.6-2.3-3.4-4.1C103.4,90.4,106.8,92.4,106.8,94.6z"/>
			<linearGradient id="SVGID_16_" gradientUnits="userSpaceOnUse" x1="101.2808" y1="85.9127" x2="108.5053" y2="85.9127">
				<stop  offset="0" style="stop-color:#838486"/>
				<stop  offset="0.3046" style="stop-color:#7F8082"/>
				<stop  offset="0.6201" style="stop-color:#727375"/>
				<stop  offset="0.9397" style="stop-color:#5E5F61"/>
				<stop  offset="1" style="stop-color:#595A5C"/>
			</linearGradient>
			<path class="st66" d="M101.3,82.5c0,0,4,7,7.2,6.8C108.5,89.3,106.1,89.4,101.3,82.5z"/>
			<path class="st65" d="M103.2,90.6c0,0,0.9-0.9,0.5,6.5C103.7,97.1,103.7,92,103.2,90.6z"/>
			<path class="st65" d="M103.7,97.1c0,0,0.1,3.6-2.6,5.6C101.1,102.7,103.3,100.7,103.7,97.1z"/>
			<path class="st65" d="M98,99.8c0,0-0.4,1.9,0.6,2.3c1,0.4,2.5,0.5,2.5,0.5C101,102.8,97.4,102.5,98,99.8z"/>
			<path class="st67" d="M96.2,80.2c0,0-1.8-4,0.4-4.9s1.3-1,3.6-0.2s3.5,2.1,3.3,4.2s-1.7,3.3-2.3,3.3
				C100.7,82.5,97.9,82.4,96.2,80.2z"/>
			<linearGradient id="SVGID_17_" gradientUnits="userSpaceOnUse" x1="95.3933" y1="75.5032" x2="99.0352" y2="75.5032">
				<stop  offset="0" style="stop-color:#838486"/>
				<stop  offset="0.3046" style="stop-color:#7F8082"/>
				<stop  offset="0.6201" style="stop-color:#727375"/>
				<stop  offset="0.9397" style="stop-color:#5E5F61"/>
				<stop  offset="1" style="stop-color:#595A5C"/>
			</linearGradient>
			<path class="st68" d="M99,74.2c0,0-3.1,0.5-3.6,2.6C95.4,76.8,96.4,75,99,74.2z"/>
			<path class="st65" d="M97.6,81.5c0,0-2.8-1-2.1-4.9C95.5,76.6,94.9,79.7,97.6,81.5z"/>
			<path class="st65" d="M99,74.2c0,0,3,1.4,4.9,1.9C103.9,76.1,101.7,75.6,99,74.2z"/>
			<path class="st65" d="M99,74.2c0,0-2.1-0.8-3.8-0.8C95.2,73.4,98.3,74,99,74.2z"/>
			<path class="st65" d="M95.2,73.4c0,0-0.9,0.1-3,0.8C92.3,74.2,94.9,73.4,95.2,73.4z"/>
			<path class="st65" d="M83,80.4c0,0-3.4,0.6-1.7,5.9C81.3,86.3,79.8,81.5,83,80.4z"/>
			<path class="st65" d="M73.8,86.9c0,0-0.5,4.7,2.8,5.5C76.6,92.4,73.8,91.7,73.8,86.9z"/>
			<path class="st65" d="M81.3,86.1c0,0-0.4,5.5-4.7,6.3C76.6,92.4,80.6,91.4,81.3,86.1z"/>
			<path class="st65" d="M97.7,89.3c0,0,4-0.3,6.9,1.9C104.6,91.2,101.8,88.8,97.7,89.3z"/>
			<path class="st69" d="M71.3,72.4c0,0-3.3,1.8-3.3,9.5C68.1,81.9,68.8,74.6,71.3,72.4z"/>
			<path class="st70" d="M66.5,72.9c0,0-0.5,5.5,1.5,9C68.1,81.9,65.5,78.5,66.5,72.9z"/>
			<path class="st71" d="M73.8,88.3c0,0-6.4-6.9-2.2-15.8C71.7,72.2,68.3,80,73.8,88.3z"/>
			<linearGradient id="SVGID_18_" gradientUnits="userSpaceOnUse" x1="108.5053" y1="87.6979" x2="112.9998" y2="87.6979">
				<stop  offset="0" style="stop-color:#666666"/>
				<stop  offset="0.1429" style="stop-color:#4D4D4D"/>
				<stop  offset="0.2324" style="stop-color:#717171"/>
				<stop  offset="0.3741" style="stop-color:#A3A3A3"/>
				<stop  offset="0.5077" style="stop-color:#CBCBCB"/>
				<stop  offset="0.6293" style="stop-color:#E7E7E7"/>
				<stop  offset="0.735" style="stop-color:#F9F9F9"/>
				<stop  offset="0.8128" style="stop-color:#FFFFFF"/>
			</linearGradient>
			<path class="st72" d="M108.5,89.3c0,0,5.2,1.1,4.4-3.3C112.9,86,113.2,89.9,108.5,89.3z"/>
			<g class="st55">
				
					<image style="overflow:visible;" width="102" height="87" xlink:href="2587EF51.png"  transform="matrix(0.588 0 0 0.588 59.453 58.5914)">
				</image>
			</g>
			<path class="st65" d="M95.1,73.4c0,0-6.9,1.5-8.3,5.3C86.8,78.7,89.9,75,95.1,73.4z"/>
			<path class="st73" d="M100.8,82.7c0,0-2.6-0.2-4.4-1.8l-0.7-0.4l-3.3,0.9l3.6-1.3C96,80.1,97,81.7,100.8,82.7z"/>
			<path class="st74" d="M82.9,129.2h7c4.5-22.9-6.1-18.1-6.1-18.1s5.2,3.4,3.9,10.2C87.8,121.3,86.9,125.6,82.9,129.2z"/>
			<path class="st42" d="M9.9,83c0,0-0.3,0.9-2.2,1.9c0,0-2.5,1.4-3.6,1.7C4.2,86.6,8.9,84.4,9.9,83z"/>
			<path class="st58" d="M-1.1,87.9v1.4c0,0,0.6,1.8,1.3,2.3C0.2,91.6-1.1,90.2-1.1,87.9z"/>
			<path class="st58" d="M0,91.4c0,0,1.3,1.5,3.4,1.7C3.5,93.1,1.6,92.8,0,91.4z"/>
			<path class="st58" d="M3.5,93.1c0,0,1.3,0.4,1.6-0.7C5.1,92.4,4.8,93.3,3.5,93.1z"/>
			<path class="st58" d="M2.8,87c0,0-0.3,0.2-0.4,0.7c-0.1,0.5-0.2,1.3,0.4,1.5C2.8,89.2,1.9,88.6,2.8,87z"/>
			<path class="st58" d="M2.8,89.2c0,0,0.9,0.3,1.7,0.3C4.5,89.4,3,89.3,2.8,89.2z"/>
			<path class="st58" d="M-6.5,86.1c0,0-1.1,1.9-2.7,3.7C-9.2,89.8-6.5,86.1-6.5,86.1z"/>
			<path class="st58" d="M-5.6,95.2c0,0-4.4,2.4-5.3-2C-10.9,93.2-10.6,97.7-5.6,95.2z"/>
			<path class="st58" d="M-15.4,90.7c0,0-2,2.4-1.6,6.4C-16.9,97.1-18,93.6-15.4,90.7z"/>
			<path class="st58" d="M-11,92.6c0,0-0.5,3.4-3.1,5.5C-14.1,98-12.2,96-11,92.6z"/>
			<path class="st58" d="M-17,97.2c0,0,0.8,1.2,2.9,0.9C-14.1,98-16.4,97.9-17,97.2z"/>
			<path class="st58" d="M-12.9,97.1c0,0-0.4,1-2.1,1C-15,98-13.4,97.9-12.9,97.1"/>
			<path class="st58" d="M-6.5,86.1c0,0-5.4,0.9-8,3.9C-14.5,90-11.6,87.3-6.5,86.1z"/>
			<polygon class="st58" points="-14.5,90 -15.4,90.7 -16,91.6 			"/>
			<path class="st58" d="M-16,91.5c0,0-1,1-2.1,1.3c0,0-1,0.6-1.9,0.2C-20,93-18.1,93.2-16,91.5z"/>
			<path class="st58" d="M-20,93c0,0-2.3-0.5-2.1-2.6C-22,90.1-22,92-20,93z"/>
			<path class="st58" d="M0.8,75.8c0,0-8.3,1.5-12,5C-11.2,80.7-4.7,76.4,0.8,75.8z"/>
			<path class="st58" d="M-9.2,89.8c0,0-1.7,1.5-1.8,2.7C-11,92.6-10.4,90.9-9.2,89.8z"/>
			<path class="st58" d="M-3.1,90c0,0-1,2.1-1.2,3.1C-4.3,93.1-3.4,90.7-3.1,90z"/>
			<path class="st65" d="M8.2,81.8c0,0-2.7,2.4-7.4,3.8C0.8,85.6,5.7,84.6,8.2,81.8z"/>
			<path class="st58" d="M0.8,85.6c0,0-2.6,0.5-3.7,3.9C-2.9,89.6-2.1,86.8,0.8,85.6z"/>
			<path class="st75" d="M75.7,73.4c0,0-4.9,2.5-1.9,9.4C73.4,83.3,69.6,74.9,75.7,73.4z"/>
			<path class="st65" d="M73.3,81.3c0,0,1.1,3.5,0.4,6.3C73.7,87.6,73.8,83.7,73.3,81.3z"/>
			<path class="st10" d="M72.6,70.2c0,0,1.9-0.8,3.4,0s2.6,1.8,3.3,2.9L72.6,70.2z"/>
			<path class="st10" d="M79.2,72.9c0,0,2.1-0.1,2.7-0.1s2,0.1,2,0.1L81,73.8L79.2,72.9z"/>
			<path class="st22" d="M31.6,45.2c0,0-1,3.9-1.7,4.4S30.6,48.5,31.6,45.2z"/>
			<path class="st22" d="M25.7,48.1c0,0,0.8,2.3,4.2,1.5C29.9,49.6,27.2,51.1,25.7,48.1z"/>
			<path class="st22" d="M26.6,49.3c0,0-0.5,1-0.8,1c-0.3,0.1-0.4,0.2-1.1-0.3c-0.7-0.5-0.7-0.5-0.7-0.5S25.6,51.3,26.6,49.3z"/>
			<path class="st22" d="M23.3,40.2c0,0,0.8,6.8,3.1,9.2C26.5,49.4,23.8,44.8,23.3,40.2z"/>
			<path class="st7" d="M31.6,45.2c0,0,0.9-3.5,2.8-7C34.4,38.2,31.8,43,31.6,45.2z"/>
			<path class="st22" d="M34,38.7c0,0-1.9,2.9-2.9,7.9C31.1,46.7,33.4,39.7,34,38.7z"/>
			<path class="st76" d="M31.6,45.2c0,0,1.9,3.9,2.5,4.3C34.1,49.4,32.3,46.4,31.6,45.2z"/>
			<path class="st76" d="M34.1,49.4c0,0,1.1,1.1,1.9-1.1C36,48.4,35.3,50.8,34.1,49.4z"/>
			<path class="st76" d="M34.4,38.2c0,0,1.2,0.7,1.7,5.7C36.1,43.9,35.4,39.1,34.4,38.2z"/>
			<path class="st76" d="M36.1,43.7c0,0,0.5,3.1-0.3,5.1C35.8,48.8,36.4,45.1,36.1,43.7z"/>
			<path class="st77" d="M48.8,25.9c0,0,4.1,1.6,4.6,5C53.5,31,52.3,28.1,48.8,25.9z"/>
			<path class="st78" d="M78.5,112c0,0,5.5,2.8,4.6,7.3c0.1,0,3.6-2.8-2.2-8.4C80.8,111,78.3,111.2,78.5,112z"/>
			<path class="st78" d="M66.7,124.8c0,0,10.7,0.4,11.4,1.2c0.7,0.8,0.3,3.2,0.3,3.2h-7l-0.9-1.3l-1,0
				C69.5,127.9,66.4,125.5,66.7,124.8z"/>
			<path class="st78" d="M43.5,84.7c0,0,3.5,4.8,0.7,9.7c0.1,0.1,2.9-1.8,3.6-5.8c0,0-1.4-4.8-1.5-4.7
				C46.1,83.9,43.7,84.1,43.5,84.7z"/>
			<path class="st22" d="M70.2,44.7c0,0,6.1-0.9,22.5,14.8C92.6,59.5,77.6,44.2,70.2,44.7z"/>
			<path class="st22" d="M56.5,68.5c0,0,4.6,0.2,10.5,3.6C66.9,72.1,60.9,67.6,56.5,68.5z"/>
			<path class="st22" d="M55.1,84c0,0,6.9,5.2,9.5,5.9C64.7,90,62.9,90.1,55.1,84z"/>
			<path class="st22" d="M44.9,5.4c0,0,1.2-2.6,3.2,10.8C48.1,16.2,46.4,5.6,44.9,5.4z"/>
			<path class="st22" d="M48.1,16.9c0,0,0.7,2.8-0.3,2.7s-1.3-0.3-1.3-0.3S48.8,20.5,48.1,16.9z"/>
			<path class="st22" d="M38,17.4c0,0,8.7,1.7,9.8,2.2C47.8,19.6,39.5,17,38,17.4z"/>
			<path class="st22" d="M37.3,12.3c0,0-2.3,3.7-2.6,3.9c-0.3,0.3-0.1,0-0.1,0S36,15.1,37.3,12.3z"/>
			<path class="st22" d="M14.9,15.1c0,0,3.6,1.6,6.5,2.4C21.4,17.5,19.2,17.6,14.9,15.1z"/>
			<path class="st22" d="M9.7,15.5c0,0,3.9,2.4,8.9,6.4C18.5,21.9,14,18.6,9.7,15.5z"/>
			<polygon class="st79" points="9.7,15.5 14.6,27 18.1,22.9 			"/>
			
				<image style="overflow:visible;" width="85" height="92" xlink:href="2587EF53.png"  transform="matrix(0.588 0 0 0.588 15.9373 14.4877)">
			</image>
			<path class="st25" d="M64.2,39.4"/>
			<path class="st22" d="M70.2,44.7c0,0-5.5-4.2-6-5.2C64.2,39.4,69,43.7,70.2,44.7z"/>
			<path class="st22" d="M60.3,16.1c0,0-9.2-1.5-10.1-1.5C50.2,14.6,56.6,15.2,60.3,16.1z"/>
			<path class="st65" d="M8.4,81.7c0,0-2.4,3.2-7.4,4C1,85.6,4.7,85.1,8.4,81.7z"/>
			<path class="st80" d="M32.3,105.9c0,0-0.9,6.2,1,9.9C33.3,115.8,32.3,110.8,32.3,105.9z"/>
			<path class="st65" d="M0.8,85.6c0,0-2.5,1.1-3.7,3.9C-2.8,89.5-1.5,86.1,0.8,85.6z"/>
			<path class="st65" d="M-1.5,87.2c0,0-1.8,2.4-2.6,5.2C-4.1,92.4-2.7,87.9-1.5,87.2z"/>
			<path class="st65" d="M-3.4,90.5c0,0-1.3,3.9-2.2,4.7C-5.6,95.2-4,92.5-3.4,90.5z"/>
			<path class="st81" d="M-11.1,92.8c0,0-0.7,2.9-1.9,4.4c0,0,0.2,0.7,0.7,0.3C-11.9,97.1-11.1,92.8-11.1,92.8z"/>
			<path class="st82" d="M-17.2,96.6c0,0,0.1,1,1.5,1.3c1,0.1,1.9-0.1,1.9-0.1l-0.3,0.9l-2.5-0.1l-1-1L-17.2,96.6z"/>
			<path class="st83" d="M4.5,89.4c0,0,1,0.8,0.9,1.3c0,0.5,0.7-0.7,0.7-0.7l-2-1L4.5,89.4z"/>
			<path class="st2" d="M-11.6,94.4c0.3,0-2,3.6-2.5,3.8c-0.3,0.1,2.2-0.7,2.2-0.7L-11.6,94.4z"/>
			<polygon class="st2" points="-14,97.9 -12.6,96.6 -13.2,98.1 			"/>
			<path class="st2" d="M108.1,96.7c0,0,1.8,1.9,2.9,1.6c1.1-0.3,1.5-0.9,1.5-0.9S110.9,99.1,108.1,96.7z"/>
			<path class="st2" d="M112.6,97.5c0,0-2.4,1.1-2.7,0.8c-0.3-0.3-3-2.7-3.1-3.8c-0.3,0,2.1,4.7,2.1,4.7S112.2,98.2,112.6,97.5z"/>
			<path class="st2" d="M105.2,92c0,0,1.5,1.8,1.5,2.8c0,0.9-2.3-1.3-2.3-1.3L105.2,92z"/>
			<path class="st39" d="M101.9,101.3c0,0-0.8,1.4-1.1,1.4c-0.2-0.1,0.2,0,0.2,0S102.2,101.6,101.9,101.3z"/>
			<path class="st2" d="M98,101c0,0,0.3,1.3,2,1.6c1.7,0.2-0.9,0.7-0.9,0.7l-1.4-0.8L98,101z"/>
			<path class="st2" d="M81.3,86.3c0,0-0.4,2.5-1.2,3.4C80.1,90.2,82.1,87.1,81.3,86.3z"/>
			<path class="st84" d="M34.4,38.2c0,0-2.4,4.3-2.8,7C31.6,45.2,33,39.7,34.4,38.2z"/>
			<path class="st84" d="M34.4,38.2c0,0-2,3.5-2.8,7C31.6,45.2,32.7,39.7,34.4,38.2z"/>
			<path class="st85" d="M25.9,48.6c0,0,0.5,1.3,1.9,1.3s1.9-0.1,2.2-0.5S27.8,50.5,25.9,48.6z"/>
			<path class="st22" d="M8.2,14.1c0,0,0.3,4.8,5.7,15l1-1.9c0,0-6.3-10.6-5.3-11.6L8.2,14.1z"/>
			<path class="st86" d="M8.2,14.1c0,0,10,2.7,11.6,5.8l-1.7,3L8.2,14.1z"/>
		</g>
	</g>
</g>
</svg>
