<?xml version="1.0" encoding="utf-8"?>
<!-- Generator: Adobe Illustrator 22.0.1, SVG Export Plug-In . SVG Version: 6.00 Build 0)  -->
<svg version="1.1" id="Layer_1" xmlns="http://www.w3.org/2000/svg" xmlns:xlink="http://www.w3.org/1999/xlink" x="0px" y="0px"
	 viewBox="0 0 14.2 11.5" style="enable-background:new 0 0 14.2 11.5;" xml:space="preserve">
<style type="text/css">
	.st0{fill:#DCDCDC;}
	.st1{fill:none;stroke:#DCDCDC;stroke-width:2;stroke-linecap:round;stroke-linejoin:bevel;stroke-miterlimit:10;}
</style>
<path class="st0" d="M13.1,4.8H3.5l3-3c0.4-0.4,0.4-1,0-1.4s-1-0.4-1.4,0L0.4,5.1C0.2,5.3,0.1,5.5,0.1,5.8s0.1,0.5,0.3,0.7L5,11.1
	c0.2,0.2,0.5,0.3,0.7,0.3s0.5-0.1,0.7-0.3c0.4-0.4,0.4-1,0-1.4L3.5,6.8h9.6c0.6,0,1-0.4,1-1S13.7,4.8,13.1,4.8z"/>
<polyline class="st1" points="44.9,29.9 40.2,34.5 44.9,39.2 "/>
<line class="st1" x1="40.2" y1="34.5" x2="52.2" y2="34.5"/>
</svg>
