<svg id="Layer_1" data-name="Layer 1" xmlns="http://www.w3.org/2000/svg" viewBox="0 0 27 36"><defs><style>.cls-1{fill:#fff;}</style></defs><title>Bell</title><path class="cls-1" d="M21.54,24.12H5.45c0-.56,0-1.1,0-1.64,0-.09.12-.19.21-.25A9.5,9.5,0,0,0,9.21,15.1a18,18,0,0,1,.3-2.31,3,3,0,0,1,2.27-2.52.68.68,0,0,0,.38-.35A1.4,1.4,0,0,1,13.51,9a1.38,1.38,0,0,1,1.31.91c.06.14.19.32.32.35a3.25,3.25,0,0,1,2.45,3.09c.16,1.24.24,2.49.49,3.71a8.58,8.58,0,0,0,3.08,5,.84.84,0,0,1,.38.81C21.52,23.29,21.54,23.67,21.54,24.12Z"/><path class="cls-1" d="M13.51,24.73a7.62,7.62,0,0,1,1,.2c.48.14.59.41.46.9A1.58,1.58,0,0,1,13.51,27,1.56,1.56,0,0,1,12,25.86c-.16-.53,0-.81.5-.95C12.82,24.82,13.16,24.79,13.51,24.73Z"/></svg>