<?xml version="1.0" encoding="utf-8"?>
<!-- Generator: Adobe Illustrator 22.0.0, SVG Export Plug-In . SVG Version: 6.00 Build 0)  -->
<svg version="1.1" id="Layer_1" xmlns="http://www.w3.org/2000/svg" xmlns:xlink="http://www.w3.org/1999/xlink" x="0px" y="0px"
	 viewBox="0 0 222.9 159.2" style="enable-background:new 0 0 222.9 159.2;" xml:space="preserve">
<style type="text/css">
	.st0{fill:#5E5E5E;}
</style>
<g>
	<path class="st0" d="M213.4,22.6h-69v-13c0-3.8-3.1-7-7-7h-51c-3.8,0-7,3.1-7,7v13h-70c-3.8,0-7,3.1-7,7v120c0,3.8,3.1,7,7,7h204
		c3.8,0,7-3.1,7-7v-120C220.4,25.7,217.3,22.6,213.4,22.6z M111.4,137.3c-26.3,0-47.7-21.4-47.7-47.7s21.4-47.7,47.7-47.7
		c26.3,0,47.7,21.4,47.7,47.7S137.8,137.3,111.4,137.3z M210.5,47.5c-0.1,0.6-0.5,1.1-1.1,1.1h-29.9c-0.6,0-1.1-0.5-1.1-1.1V31.6
		c0-0.6,0.5-1.1,1.1-1.1h29.9c0.6,0,1.1,0.5,1.1,1.1V47.5z"/>
	<circle class="st0" cx="111.5" cy="89.6" r="32.6"/>
</g>
</svg>
