<?xml version="1.0" encoding="utf-8"?>
<!-- Generator: Adobe Illustrator 22.0.1, SVG Export Plug-In . SVG Version: 6.00 Build 0)  -->
<svg version="1.1" id="Layer_1" xmlns="http://www.w3.org/2000/svg" xmlns:xlink="http://www.w3.org/1999/xlink" x="0px" y="0px"
	 viewBox="0 0 25 25" style="enable-background:new 0 0 25 25;" xml:space="preserve">
<style type="text/css">
	.st0{fill:#E5E5E5;}
</style>
<g id="Ou0XE8.tif">
	<g>
		<path class="st0" d="M0,22.3c0-0.6,0-1.2,0-1.8c0.6-0.6,1.2-1.2,1.8-1.8c3-3,5.9-5.9,8.9-8.9c0.1-0.1,0.2-0.2,0.1-0.4
			c-0.2-0.8-0.2-1.6-0.1-2.3c0.4-2.8,2.6-5.3,5.3-5.9c0.5-0.1,1-0.2,1.5-0.2c0.2,0,0.3,0,0.5,0c0.2,0,0.5,0.1,0.7,0.1
			c2.8,0.3,5.1,2.4,5.9,5.1c0.1,0.5,0.2,1,0.3,1.5c0,0.3,0,0.7,0,1c-0.1,0.3-0.1,0.7-0.2,1c-0.9,3.9-4.5,6.2-8.4,5.5
			c-0.1,0-0.2,0-0.3,0.1c-0.6,0.6-1.1,1.1-1.7,1.7c-0.1,0.1-0.2,0.1-0.3,0.1c-1,0-2,0-3.1,0c-0.1,0-0.2,0-0.3,0c0,0.6,0,1.2,0,1.8
			c-0.6,0-1.2,0-1.8,0c0,0.6,0,1.2,0,1.8c-0.6,0-1.2,0-1.8,0c0,0.5,0,1.1,0,1.6c0,0.1-0.1,0.2-0.1,0.3c-0.5,0.5-1,1-1.5,1.5
			c-0.1,0.1-0.2,0.1-0.3,0.1c-1,0-2.1,0-3.1,0c-0.2,0-0.3,0-0.4-0.2C1.1,23.4,0.5,22.9,0,22.3z M1.8,22.3c0.1,0,0.1-0.1,0.1-0.1
			c2.9-2.9,5.8-5.8,8.7-8.7c0,0,0.1-0.1,0.1-0.2c0-0.5,0-1.1,0-1.7c-0.1,0.1-0.1,0.1-0.2,0.1c-2.9,2.9-5.8,5.8-8.6,8.6
			c0,0-0.1,0.1-0.1,0.2C1.8,21.1,1.8,21.7,1.8,22.3z M17.8,6.3c0,1,0.8,1.8,1.8,1.8c1,0,1.8-0.8,1.8-1.8c0-1-0.8-1.8-1.8-1.8
			C18.7,4.5,17.8,5.3,17.8,6.3z"/>
	</g>
</g>
</svg>
