<?xml version="1.0" encoding="utf-8"?>
<!-- Generator: Adobe Illustrator 22.0.1, SVG Export Plug-In . SVG Version: 6.00 Build 0)  -->
<svg version="1.1" id="Layer_1" xmlns="http://www.w3.org/2000/svg" xmlns:xlink="http://www.w3.org/1999/xlink" x="0px" y="0px"
	 viewBox="0 0 21.2 21.2" style="enable-background:new 0 0 21.2 21.2;" xml:space="preserve">
<style type="text/css">
	.st0{fill:#FFFFFF;}
</style>
<path class="st0" d="M20.8,9.9c-0.4,1.9-1.3,3.4-2.9,4.6c-1.7,1.3-3.7,1.9-5.9,1.7c-1.1-0.1-2.1-0.4-3-1c-0.2-0.1-0.3-0.1-0.4,0
	c-1.7,1.7-3.5,3.4-5.2,5.1C3,20.8,2.5,21,1.8,21c-0.7-0.1-1.4-0.6-1.6-1.4c-0.2-0.8,0-1.5,0.6-2.1c1.7-1.7,3.4-3.3,5.2-5
	c0.1-0.1,0.1-0.2,0.1-0.3C5.1,10.6,4.8,8.9,5,7C5.3,5.5,5.8,4.2,6.8,3c1.9-2.2,4.3-3.1,7.2-2.8c1.3,0.1,2.4,0.6,3.5,1.3
	c2.3,1.6,3.4,3.8,3.5,6.8C21,8.8,20.9,9.3,20.8,9.9z M13,3.4c-2.5,0-4.8,2-4.8,4.8c0,2.7,2.2,4.8,4.8,4.8c2.7,0,4.8-2.2,4.8-4.8
	C17.8,5.6,15.6,3.4,13,3.4z"/>
</svg>
