<?xml version="1.0" encoding="utf-8"?>
<!-- Generator: Adobe Illustrator 22.0.0, SVG Export Plug-In . SVG Version: 6.00 Build 0)  -->
<svg version="1.1" id="Layer_1" xmlns="http://www.w3.org/2000/svg" xmlns:xlink="http://www.w3.org/1999/xlink" x="0px" y="0px"
	 viewBox="0 0 19 19" style="enable-background:new 0 0 19 19;" xml:space="preserve">
<style type="text/css">
	.st0{display:none;}
	.st1{display:inline;}
	.st2{fill:#C1C5C8;}
	.st3{fill:#545454;}
	.st4{fill:#FFFFFF;}
</style>
<g class="st0">
	<g class="st1">
		<polygon class="st2" points="3.5,2.6 7.2,2.6 8.1,1.7 10.9,1.7 11.8,2.6 15.5,2.6 15.5,4.4 3.5,4.4 		"/>
		<g>
			<path class="st2" d="M3.5,5.3l1,13h10l1-13C15.5,5.3,3.5,5.3,3.5,5.3z M6.9,16.8H5.7v-10h1.2C6.9,6.8,6.9,16.8,6.9,16.8z
				 M10.1,16.8H8.9v-10h1.2C10.1,6.8,10.1,16.8,10.1,16.8z M13.3,16.8h-1.2v-10h1.2V16.8z"/>
		</g>
	</g>
</g>
<g>
	<g>
		<polygon class="st3" points="3.4,2.6 7.1,2 7.8,0.9 10.5,0.4 11.6,1.1 15.2,0.4 15.6,2.2 3.8,4.4 		"/>
		<g>
			<path class="st3" d="M3.5,5.3l1,13h10l1-13C15.5,5.3,3.5,5.3,3.5,5.3z M6.9,16.8H5.7v-10h1.2C6.9,6.8,6.9,16.8,6.9,16.8z
				 M10.1,16.8H8.9v-10h1.2C10.1,6.8,10.1,16.8,10.1,16.8z M13.3,16.8h-1.2v-10h1.2V16.8z"/>
		</g>
	</g>
</g>
<g class="st0">
	<polygon class="st1" points="-43.2,28.6 -42.2,41.6 -32.2,41.6 -31.2,28.6 	"/>
</g>
<polygon class="st0" points="-43.2,25.9 -39.5,25.9 -38.6,25 -35.8,25 -34.9,25.9 -31.2,25.9 -31.2,27.7 -43.2,27.7 "/>
<g class="st0">
	<g class="st1">
		<rect x="-41" y="30.1" class="st4" width="1.2" height="10"/>
	</g>
	<g class="st1">
		<rect x="-37.8" y="30.1" class="st4" width="1.2" height="10"/>
	</g>
	<g class="st1">
		<rect x="-34.7" y="30.1" class="st4" width="1.2" height="10"/>
	</g>
</g>
</svg>
