<?xml version="1.0" encoding="utf-8"?>
<!-- Generator: Adobe Illustrator 22.0.0, SVG Export Plug-In . SVG Version: 6.00 Build 0)  -->
<svg version="1.1" id="Layer_1" xmlns="http://www.w3.org/2000/svg" xmlns:xlink="http://www.w3.org/1999/xlink" x="0px" y="0px"
	 viewBox="0 0 19 19" style="enable-background:new 0 0 19 19;" xml:space="preserve">
<style type="text/css">
	.st0{fill:#FFFFFF;}
</style>
<image style="overflow:visible;opacity:0.3;" width="128" height="131" xlink:href="12E2C986.jpg"  transform="matrix(0.1484 0 0 0.1484 23 0)">
</image>
<g>
	<polygon points="2.6,5.7 3.6,18.8 13.6,18.8 14.6,5.7 	"/>
</g>
<polygon points="2.6,3 6.3,3 7.3,2.2 10,2.2 11,3 14.6,3 14.6,4.8 2.6,4.8 "/>
<g>
	<g>
		<rect x="4.9" y="7.2" class="st0" width="1.2" height="10"/>
	</g>
	<g>
		<rect x="8" y="7.2" class="st0" width="1.2" height="10"/>
	</g>
	<g>
		<rect x="11.2" y="7.2" class="st0" width="1.2" height="10"/>
	</g>
</g>
<g>
	<polygon points="-24.4,25.8 -23.4,38.8 -13.4,38.8 -12.4,25.8 	"/>
</g>
<polygon points="-24.4,23 -20.7,23 -19.7,22.1 -17,22.1 -16,23 -12.4,23 -12.4,24.9 -24.4,24.9 "/>
<g>
	<g>
		<rect x="-22.1" y="27.3" class="st0" width="1.2" height="10"/>
	</g>
	<g>
		<rect x="-19" y="27.3" class="st0" width="1.2" height="10"/>
	</g>
	<g>
		<rect x="-15.8" y="27.3" class="st0" width="1.2" height="10"/>
	</g>
</g>
</svg>
