<?xml version="1.0" encoding="utf-8"?>
<!-- Generator: Adobe Illustrator 22.0.1, SVG Export Plug-In . SVG Version: 6.00 Build 0)  -->
<svg version="1.1" id="Layer_1" xmlns="http://www.w3.org/2000/svg" xmlns:xlink="http://www.w3.org/1999/xlink" x="0px" y="0px"
	 viewBox="0 0 25 25" style="enable-background:new 0 0 25 25;" xml:space="preserve">
<style type="text/css">
	.st0{fill:#E5E5E5;}
</style>
<g>
	<ellipse class="st0" cx="12.5" cy="7.9" rx="6" ry="7.7"/>
	<path class="st0" d="M24.4,23.4c0,0,0-0.4,0-1.5c0-1.1-1.2-1.8-1.2-1.8l-7-3.4L15.7,16c-0.9,0.7-2,1-3.2,1s-2.2-0.4-3.2-1l-0.6,0.6
		l-7,3.4c0,0-1.2,0.7-1.2,1.8c0,1.1,0,1.5,0,1.5s-0.2,1.4,1.4,1.4c1.3,0,7.9,0,10.2,0c0.5,0,0.8,0,0.8,0c2.3,0,8.9,0,10.2,0
		C24.7,24.8,24.4,23.4,24.4,23.4z"/>
</g>
</svg>
